<?xml version="1.0" encoding="UTF-8"?><svg id="a" xmlns="http://www.w3.org/2000/svg" viewBox="0 0 302 175.28"><defs><style>.b{fill:#fff;}.c{fill:#354a9f;}.d{fill:#ba4a9b;}</style></defs><g><polygon class="c" points="0 164.75 0 165.41 302 165.41 302 1.87 0 164.75"/><polygon class="d" points="302 1.97 0 1.97 0 165.31 302 2.42 302 1.97"/></g><g><path d="M51.42,54.74v3.94L6.81,39.67v-3.23L51.42,17.51v4.02L11.62,38.04l39.8,16.7Z"/><path d="M83.61,28.31v-5.46c-.18-1.74-.35-2.94-.49-3.61-.14-.66-.37-1.1-.66-1.33-.3-.22-.78-.33-1.43-.33-.7,0-1.58,.13-2.62,.39l-.08-1.19c4.79-1.99,8.23-3.72,10.31-5.21l.94,.39c-.29,1.25-.53,3.42-.74,6.52-.21,3.1-.42,6.81-.62,11.13l-.16,3.87-.31,15.74v3.79c0,3.72,.12,6.52,.37,8.38,.25,1.86,.61,2.79,1.07,2.79,.29,0,.89-.13,1.82-.39,.92-.26,1.89-.56,2.91-.9v1.45c-6.12,2.13-9.43,3.2-9.92,3.2-.39,0-.69-.53-.9-1.58-.21-1.05-.31-2.64-.31-4.75-2.81,1.48-5.05,2.54-6.72,3.16-1.67,.62-3.42,.94-5.27,.94s-3.82-.5-5.66-1.5c-1.85-1-3.37-2.47-4.55-4.39-1.19-1.93-1.78-4.15-1.78-6.68,0-3.46,.77-6.36,2.32-8.69,1.55-2.33,3.33-4.09,5.35-5.27,2.02-1.18,3.95-2.03,5.78-2.54s3.03-.76,3.57-.76c.81,0,1.84,.1,3.09,.31,1.25,.21,2.73,.53,4.45,.98,.16-2.88,.23-5.7,.23-8.46Zm-.82,27.09l.23-13.36c0-.6-.45-1.14-1.35-1.62-.9-.48-1.89-.85-2.97-1.11-1.08-.26-2.27-.48-3.57-.66-1.3-.18-2.06-.27-2.27-.27-1.67,0-3.25,.44-4.75,1.31-1.5,.87-2.7,2.06-3.59,3.57-.9,1.51-1.35,3.19-1.35,5.04,0,2.87,.52,5.34,1.56,7.42,1.04,2.08,2.45,3.67,4.24,4.77,1.78,1.09,3.74,1.64,5.88,1.64,1.51,0,2.88-.27,4.12-.8,1.24-.53,2.51-1.2,3.81-2.01-.03-.18-.03-.69-.02-1.52,.01-.83,.02-1.63,.02-2.38Z"/><path d="M121.7,45.17l-19.53,4.22c.13,2.45,.37,4.34,.72,5.68,.35,1.34,1.05,2.7,2.09,4.08,2,2.63,4.43,3.95,7.27,3.95,1.17,0,2.42-.22,3.75-.66,1.33-.44,2.8-1.24,4.41-2.38l.7,.94c-4.53,3.26-8.55,4.88-12.07,4.88-3.72,0-6.63-1.41-8.71-4.22-2.08-2.81-3.12-6.04-3.12-9.69s.79-6.82,2.38-9.28c1.59-2.46,3.37-4.25,5.35-5.37,1.98-1.12,3.48-1.68,4.49-1.68,1.17,0,2.39,.19,3.65,.57,1.26,.38,2.5,1.1,3.71,2.17,1.21,1.07,2.22,2.53,3.03,4.38,.23,.39,.46,.65,.66,.78,.21,.13,.59,.2,1.13,.2l.08,1.45Zm-19.45,2.7l5.12-1.09c.21-.1,1-.31,2.36-.62s2.29-.51,2.75-.59c1.35-.31,2.21-.53,2.58-.66,.36-.13,.55-.34,.55-.62,0-.42-.31-1.13-.94-2.13-.62-1-1.52-1.92-2.68-2.75-1.16-.83-2.52-1.25-4.08-1.25-1.95,0-3.34,1.03-4.16,3.09-.82,2.06-1.32,4.27-1.5,6.64Z"/><path d="M137.71,67.32h-1.17c-.71-2.97-1.8-6.51-3.28-10.62-1.48-4.11-2.97-7.96-4.49-11.54-1.52-3.58-2.43-5.5-2.74-5.76-.31-.26-.76-.54-1.35-.84-.59-.3-1.07-.55-1.46-.76v-.94c.86,.05,2.24,.08,4.14,.08,2.86,0,6.2-.1,10-.31l-.16,1.33c-1.85,.21-3.01,.42-3.5,.62-.48,.21-.72,.53-.72,.98,0,1.22,.78,4.2,2.35,8.93s2.81,8.11,3.72,10.14c1.74-2.79,3.36-6.05,4.87-9.79,1.51-3.74,2.26-6.37,2.26-7.91,0-1.2-.38-1.98-1.13-2.34-.76-.36-1.77-.57-3.05-.62l.16-1.25,2.73-.08c1.41,.16,2.63,.23,3.67,.23,1.64,0,3.14-.16,4.49-.47v1.17c-1.2,.5-2.22,1.38-3.07,2.66-.85,1.28-1.45,2.42-1.82,3.44-.08,.13-.3,.63-.66,1.5-.37,.87-.62,1.44-.78,1.7l-7.03,15.51-1.99,4.96Z"/><path d="M157.63,21.57v-4.02l44.61,18.96v3.25l-44.61,18.92v-3.94l39.81-16.55-39.81-16.62Z"/></g><g><path class="b" d="M133.64,117.53c-.05,.13-.26,.85-.63,2.17-1.05,.31-2.01,.55-2.87,.73-.86,.17-1.79,.26-2.8,.26-1.21,0-2.42-.21-3.63-.64s-2.3-1.07-3.27-1.91c-.97-.84-1.73-1.88-2.3-3.09-.57-1.22-.85-2.6-.85-4.15,0-2.13,.52-3.93,1.57-5.39s2.39-2.54,4.01-3.24,3.3-1.04,5.03-1.04c1.36,0,2.67,.24,3.93,.72,.59,.19,1.03,.28,1.32,.28,.14-.03,.24-.05,.3-.06s.14-.02,.24-.03c.06,0,.12,.04,.19,.12l-.22,.83c-.21,.73-.39,1.67-.54,2.8-.18-.03-.29-.09-.35-.18s-.09-.24-.09-.45c-.02-.62-.1-1.04-.25-1.26-.26-.43-.92-.87-1.98-1.32s-2.11-.67-3.18-.67c-1.41,0-2.68,.35-3.82,1.05-1.14,.7-2.04,1.72-2.7,3.07s-.99,2.93-.99,4.75c0,1.67,.29,3.11,.87,4.31,.58,1.21,1.31,2.16,2.18,2.86s1.76,1.21,2.67,1.52,1.69,.47,2.35,.47c1.05,0,1.93-.17,2.62-.52,.69-.35,1.24-.76,1.63-1.24,.4-.48,.78-1.06,1.15-1.74,.15-.28,.27-.42,.38-.42,.19,0,.28,.09,.28,.26,0,.13-.09,.52-.28,1.17Z"/><path class="b" d="M135.89,114.98c0-.86,.16-1.64,.48-2.34,.32-.7,.75-1.3,1.31-1.81s1.21-.9,1.95-1.17,1.54-.41,2.39-.41c.77,0,1.5,.14,2.19,.42,.69,.28,1.29,.67,1.81,1.17s.92,1.09,1.22,1.76c.3,.68,.45,1.41,.45,2.19,0,1.02-.24,1.97-.73,2.86-.48,.89-1.17,1.6-2.05,2.15-.88,.54-1.9,.81-3.05,.81-.87,0-1.76-.19-2.69-.57-.92-.38-1.7-.99-2.33-1.84-.63-.84-.95-1.92-.95-3.23Zm1.92-.81c0,.91,.18,1.81,.54,2.71s.87,1.64,1.52,2.21,1.37,.86,2.15,.86c.68,0,1.3-.19,1.86-.56s1-.91,1.33-1.6,.5-1.48,.5-2.36-.19-1.75-.58-2.6c-.39-.84-.92-1.53-1.6-2.07-.68-.53-1.43-.8-2.25-.8-.66,0-1.26,.18-1.79,.54s-.94,.86-1.24,1.51-.45,1.36-.45,2.15Z"/><path class="b" d="M149.37,120.27l-.03-.42c.53-.1,.91-.2,1.16-.31,.24-.11,.41-.23,.48-.37s.13-.32,.16-.56c.08-.54,.13-1.19,.16-1.97,.03-.78,.04-1.57,.04-2.37,0-1.11-.04-1.87-.11-2.27-.07-.41-.23-.66-.47-.78-.24-.11-.69-.2-1.34-.27,0-.13,0-.23-.03-.29,.42-.11,.98-.32,1.68-.63,.7-.31,1.07-.48,1.11-.52,.37-.2,.59-.29,.66-.29,.15,0,.24,.14,.28,.42,.04,.28,.06,.75,.06,1.41,1.07-.61,1.95-1.04,2.65-1.3,.69-.26,1.35-.39,1.99-.39,.95,0,1.63,.21,2.07,.62,.43,.42,.7,.92,.8,1.51,.1,.59,.15,1.37,.15,2.34v3.49c0,1.38,.06,2.13,.19,2.26,.07,.07,.32,.15,.75,.25s.68,.16,.75,.19l.03,.45c-.73-.12-1.58-.18-2.55-.18-.82,0-1.8,.06-2.94,.18v-.42c.89-.18,1.44-.45,1.66-.83,.15-.32,.25-1,.3-2.04,.05-1.04,.08-1.85,.08-2.42,0-.86-.04-1.56-.11-2.12-.07-.55-.28-1.02-.61-1.41s-.85-.59-1.55-.59c-.31,0-.78,.06-1.42,.19-.63,.13-1.38,.42-2.24,.86l-.09,3.9c-.02,1.66,0,2.76,.06,3.3,.02,.23,.07,.41,.14,.53,.07,.12,.24,.22,.49,.32s.68,.17,1.29,.24l-.03,.45c-.22-.02-.52-.04-.93-.07-.4-.03-.92-.05-1.54-.07h-3.22Z"/><path class="b" d="M165.03,116.27l.07-5.7c-.45-.06-.97-.09-1.57-.09,.02-.08,.03-.2,.03-.37,.85-.52,1.51-1.01,1.99-1.48s1.04-1.13,1.7-1.99l-.15,2.64c.84,.08,1.76,.12,2.75,.12,.48,0,1,0,1.57-.03l-.03,.91c-.51,.06-1.03,.09-1.57,.09-.05,0-.24,0-.57-.02-.33-.02-.85-.04-1.55-.07-.19,0-.32,.02-.42,.05-.09,.04-.16,.1-.19,.2-.04,.1-.06,.28-.07,.56-.01,.27-.03,.56-.04,.86l-.07,4.57c-.02,.88,.08,1.6,.3,2.18,.22,.57,.75,.86,1.59,.86,.32,0,.72-.07,1.19-.22,.47-.14,1.02-.36,1.63-.65,.02,.08,.03,.14,.04,.18,0,.04,.01,.08,.02,.13-.34,.37-.97,.74-1.88,1.11-.91,.36-1.73,.55-2.47,.55-.63,0-1.18-.22-1.63-.65-.45-.43-.68-1.18-.68-2.25v-1.48Z"/><path class="b" d="M182.02,112.86l-7.32,1.58c.05,.92,.14,1.63,.27,2.13,.13,.5,.39,1.01,.79,1.53,.75,.99,1.66,1.48,2.72,1.48,.44,0,.91-.08,1.41-.25s1.05-.46,1.65-.89l.26,.35c-1.7,1.22-3.21,1.83-4.53,1.83-1.4,0-2.49-.53-3.27-1.58s-1.17-2.27-1.17-3.63,.3-2.56,.89-3.48c.6-.92,1.26-1.59,2.01-2.01s1.3-.63,1.69-.63c.44,0,.89,.07,1.37,.21,.47,.14,.94,.41,1.39,.81,.46,.4,.83,.95,1.14,1.64,.09,.15,.17,.24,.25,.29s.22,.07,.43,.07l.03,.54Zm-7.29,1.01l1.92-.41c.08-.04,.37-.12,.89-.23,.51-.12,.86-.19,1.03-.22,.51-.12,.83-.2,.97-.25s.21-.13,.21-.23c0-.16-.12-.42-.35-.8s-.57-.72-1-1.03c-.44-.31-.95-.47-1.53-.47-.73,0-1.25,.39-1.56,1.16-.31,.77-.49,1.6-.56,2.49Z"/><path class="b" d="M183.16,120.27l-.03-.42c.53-.1,.91-.2,1.16-.31,.24-.11,.41-.23,.48-.37s.13-.32,.16-.56c.08-.54,.13-1.19,.16-1.97,.03-.78,.04-1.57,.04-2.37,0-1.11-.04-1.87-.11-2.27-.07-.41-.23-.66-.47-.78-.24-.11-.69-.2-1.34-.27,0-.13,0-.23-.03-.29,.42-.11,.98-.32,1.68-.63,.7-.31,1.07-.48,1.11-.52,.37-.2,.59-.29,.66-.29,.15,0,.24,.14,.28,.42s.06,.75,.06,1.41c1.07-.61,1.96-1.04,2.65-1.3s1.36-.39,1.99-.39c.95,0,1.63,.21,2.07,.62,.44,.42,.7,.92,.8,1.51,.1,.59,.15,1.37,.15,2.34v3.49c0,1.38,.06,2.13,.19,2.26,.07,.07,.32,.15,.75,.25s.68,.16,.75,.19l.03,.45c-.73-.12-1.58-.18-2.55-.18-.82,0-1.8,.06-2.94,.18v-.42c.89-.18,1.44-.45,1.65-.83,.15-.32,.25-1,.3-2.04,.05-1.04,.08-1.85,.08-2.42,0-.86-.04-1.56-.11-2.12s-.28-1.02-.61-1.41c-.33-.39-.85-.59-1.55-.59-.31,0-.79,.06-1.42,.19s-1.38,.42-2.24,.86l-.09,3.9c-.02,1.66,0,2.76,.06,3.3,.02,.23,.07,.41,.14,.53,.07,.12,.24,.22,.49,.32s.68,.17,1.29,.24l-.03,.45c-.22-.02-.52-.04-.93-.07s-.92-.05-1.54-.07h-3.21Z"/><path class="b" d="M198.82,116.27l.07-5.7c-.45-.06-.97-.09-1.57-.09,.02-.08,.03-.2,.03-.37,.85-.52,1.51-1.01,1.99-1.48s1.04-1.13,1.7-1.99l-.15,2.64c.84,.08,1.76,.12,2.75,.12,.48,0,1,0,1.57-.03l-.03,.91c-.51,.06-1.03,.09-1.57,.09-.05,0-.24,0-.57-.02-.33-.02-.85-.04-1.55-.07-.19,0-.33,.02-.42,.05-.09,.04-.16,.1-.19,.2-.04,.1-.06,.28-.07,.56-.01,.27-.03,.56-.04,.86l-.07,4.57c-.02,.88,.08,1.6,.3,2.18,.22,.57,.75,.86,1.59,.86,.32,0,.72-.07,1.2-.22,.47-.14,1.02-.36,1.63-.65,.02,.08,.03,.14,.04,.18,0,.04,.01,.08,.02,.13-.34,.37-.97,.74-1.88,1.11-.91,.36-1.74,.55-2.47,.55-.63,0-1.18-.22-1.63-.65-.45-.43-.68-1.18-.68-2.25v-1.48Z"/><path class="b" d="M152.75,138.34l-.03-.56c2.62,0,4.82-.11,6.61-.32,.66-.09,1.35-.13,2.07-.13,1.46,0,2.85,.22,4.17,.65,1.33,.44,2.51,1.06,3.54,1.88s1.85,1.82,2.44,3c.59,1.18,.89,2.5,.89,3.96,0,1.78-.46,3.4-1.37,4.86-.91,1.46-2.22,2.62-3.91,3.46-1.7,.85-3.62,1.27-5.79,1.27-.13,0-.51,0-1.16-.03s-1.02-.03-1.13-.03c-.38,0-.72,0-1.02,0s-.73,.01-1.3,.02c-.57,0-1.12,.02-1.64,.04-.52,.01-.88,.02-1.08,.02l-1.44-.03v-.56c1.04,0,1.67-.23,1.89-.69,.24-.54,.37-2.96,.37-7.28,0-2.87-.03-5-.1-6.41-.07-1.41-.21-2.28-.41-2.62-.25-.37-.79-.54-1.6-.51Zm17.14,8.51c0-1.86-.44-3.45-1.32-4.78-.88-1.33-2-2.34-3.37-3.03s-2.77-1.03-4.2-1.03-2.68,.25-3.81,.76c-.1,.55-.17,2.18-.22,4.89s-.07,5.05-.07,7.02c0,.08,0,.44,.02,1.1,.02,.65,.03,1.32,.04,1.98,.01,.67,.02,1.05,.02,1.15,.99,.31,1.74,.53,2.27,.65s1.19,.18,1.99,.18c2.02,0,3.68-.44,4.97-1.31,1.29-.87,2.23-1.99,2.8-3.35s.87-2.77,.87-4.25Z"/><path class="b" d="M183.93,148.86l-7.32,1.58c.05,.92,.14,1.63,.27,2.13,.13,.5,.39,1.01,.78,1.53,.75,.99,1.66,1.48,2.72,1.48,.44,0,.91-.08,1.41-.25s1.05-.46,1.66-.89l.26,.35c-1.7,1.22-3.21,1.83-4.53,1.83-1.4,0-2.48-.53-3.27-1.58s-1.17-2.27-1.17-3.63,.3-2.56,.89-3.48c.6-.92,1.27-1.59,2.01-2.01s1.3-.63,1.68-.63c.44,0,.9,.07,1.37,.21,.47,.14,.94,.41,1.39,.81,.46,.4,.83,.95,1.13,1.64,.09,.15,.17,.24,.25,.29s.22,.07,.42,.07l.03,.54Zm-7.29,1.01l1.92-.41c.08-.04,.37-.12,.89-.23,.51-.12,.86-.19,1.03-.22,.51-.12,.83-.2,.97-.25s.21-.13,.21-.23c0-.16-.12-.42-.35-.8s-.57-.72-1-1.03c-.44-.31-.95-.47-1.53-.47-.73,0-1.25,.39-1.56,1.16-.31,.77-.5,1.6-.56,2.49Z"/><path class="b" d="M189.94,157.16h-.44c-.27-1.11-.68-2.44-1.23-3.98-.55-1.54-1.12-2.99-1.68-4.33-.57-1.34-.91-2.06-1.03-2.16s-.29-.2-.51-.31c-.22-.11-.4-.21-.55-.29v-.35c.32,.02,.84,.03,1.55,.03,1.07,0,2.32-.04,3.75-.12l-.06,.5c-.69,.08-1.13,.16-1.31,.23-.18,.08-.27,.2-.27,.37,0,.46,.29,1.57,.88,3.35,.59,1.77,1.05,3.04,1.4,3.8,.65-1.04,1.26-2.27,1.83-3.67,.56-1.4,.85-2.39,.85-2.97,0-.45-.14-.74-.43-.88s-.66-.21-1.14-.23l.06-.47,1.03-.03c.53,.06,.99,.09,1.38,.09,.62,0,1.18-.06,1.69-.18v.44c-.45,.19-.83,.52-1.15,1-.32,.48-.54,.91-.68,1.29-.03,.05-.11,.24-.25,.56-.14,.33-.23,.54-.29,.64l-2.64,5.82-.75,1.86Z"/><path class="b" d="M205.72,148.86l-7.32,1.58c.05,.92,.14,1.63,.27,2.13,.13,.5,.39,1.01,.79,1.53,.75,.99,1.66,1.48,2.72,1.48,.44,0,.91-.08,1.41-.25s1.05-.46,1.65-.89l.26,.35c-1.7,1.22-3.21,1.83-4.53,1.83-1.4,0-2.49-.53-3.27-1.58s-1.17-2.27-1.17-3.63,.3-2.56,.89-3.48c.6-.92,1.26-1.59,2.01-2.01s1.3-.63,1.69-.63c.44,0,.89,.07,1.37,.21,.47,.14,.94,.41,1.39,.81,.46,.4,.83,.95,1.14,1.64,.09,.15,.17,.24,.25,.29s.22,.07,.43,.07l.03,.54Zm-7.29,1.01l1.92-.41c.08-.04,.37-.12,.89-.23,.51-.12,.86-.19,1.03-.22,.51-.12,.83-.2,.97-.25s.21-.13,.21-.23c0-.16-.12-.42-.35-.8s-.57-.72-1-1.03c-.44-.31-.95-.47-1.53-.47-.73,0-1.25,.39-1.56,1.16-.31,.77-.49,1.6-.56,2.49Z"/><path class="b" d="M206.71,156.53v-.45c.73-.13,1.25-.35,1.55-.66,.3-.31,.49-.79,.57-1.43,.05-.33,.1-1.1,.16-2.29,.06-1.19,.11-2.56,.16-4.11,.05-1.54,.07-2.93,.07-4.16,0-2.58-.13-4.04-.4-4.41-.17-.24-.5-.37-1-.37-.12,0-.21,0-.28,.01-.07,0-.13,.02-.19,.03-.06,0-.12,.02-.19,.03v-.46c1.87-.78,3.19-1.45,3.96-1.98h.44c-.3,1.15-.49,3.24-.57,6.26l-.12,7.04c0,3.3,.07,5.17,.22,5.61,.09,.25,.38,.45,.88,.58s.94,.22,1.33,.26v.56c-1.91-.14-3.2-.21-3.87-.21-.89,0-1.8,.05-2.72,.15Z"/><path class="b" d="M214.67,150.98c0-.86,.16-1.64,.48-2.34,.32-.7,.75-1.3,1.31-1.81s1.21-.9,1.95-1.17,1.54-.41,2.39-.41c.77,0,1.5,.14,2.19,.42,.69,.28,1.29,.67,1.81,1.17s.92,1.09,1.22,1.76c.3,.68,.45,1.41,.45,2.19,0,1.02-.24,1.97-.73,2.86-.48,.89-1.17,1.6-2.05,2.15-.88,.54-1.9,.81-3.05,.81-.87,0-1.77-.19-2.69-.57-.92-.38-1.7-.99-2.33-1.84-.63-.84-.95-1.92-.95-3.23Zm1.92-.81c0,.91,.18,1.81,.54,2.71s.87,1.64,1.52,2.21c.65,.58,1.37,.86,2.15,.86,.68,0,1.3-.19,1.86-.56s1-.91,1.33-1.6,.5-1.48,.5-2.36-.19-1.75-.58-2.6c-.39-.84-.92-1.53-1.6-2.07-.68-.53-1.43-.8-2.25-.8-.66,0-1.26,.18-1.79,.54s-.94,.86-1.24,1.51c-.3,.64-.45,1.36-.45,2.15Z"/><path class="b" d="M228.05,147.33l-.12-.42c.47-.28,.8-.46,.98-.54,.14,0,.56-.21,1.28-.62,.72-.41,1.22-.79,1.49-1.13,.08,.23,.18,.92,.31,2.07l1.26-.5c1.31-.55,2.3-.82,2.97-.82,.73,0,1.46,.24,2.19,.72,.73,.48,1.32,1.12,1.77,1.93,.45,.81,.68,1.68,.68,2.61,0,1.18-.27,2.17-.8,2.95s-1.2,1.39-1.98,1.82c-.79,.42-1.54,.72-2.27,.89-.73,.17-1.28,.25-1.65,.25-.61,0-1.33-.14-2.17-.42,0,.18,0,.73-.03,1.65s-.03,1.47-.03,1.62v2.66c0,.62,.03,1.07,.07,1.33,.05,.26,.14,.43,.27,.5,.13,.07,.36,.12,.68,.14l1.07,.06c.24,0,.37,.09,.37,.29,0,.12-.04,.2-.11,.23-.07,.03-.25,.04-.52,.04-1.21,0-1.97,0-2.27,.02-.3,.01-1.3,.08-2.99,.18,0-.18,0-.32-.03-.44,.5-.04,.83-.11,1-.21,.17-.1,.3-.27,.4-.51,.16-.43,.26-1.29,.31-2.58,.05-1.29,.07-2.64,.07-4.05l.03-1.83c0-1.41,0-2.86-.03-4.36s-.06-2.41-.12-2.75c-.05-.19-.12-.38-.23-.56-.1-.18-.23-.33-.37-.44-.14-.11-.29-.17-.43-.17-.11,0-.46,.13-1.07,.39Zm3.93-.04l-.03,7.41,1.35,.45c1.03,.34,1.74,.51,2.14,.51,.48,0,1.01-.12,1.6-.36s1.1-.64,1.54-1.21c.44-.57,.67-1.3,.67-2.21,0-1-.23-1.92-.69-2.76s-1.03-1.51-1.71-1.99-1.33-.72-1.95-.72c-.31,0-1.29,.29-2.92,.86Z"/><path class="b" d="M242.4,156.5l.03-.45c.59-.14,1.01-.31,1.27-.51,.26-.21,.46-.64,.58-1.3,.12-.66,.18-1.67,.18-3.03s-.07-2.25-.2-2.81c-.13-.56-.33-.9-.59-1.04-.26-.14-.69-.21-1.28-.23v-.49c1.04-.25,2.11-.7,3.21-1.35,.12-.08,.21-.12,.29-.12,.2,0,.31,.25,.36,.76,.04,.51,.05,.95,0,1.33,.21-.12,.57-.32,1.09-.59,.52-.28,.93-.49,1.23-.63,.3-.14,.68-.29,1.15-.44,.47-.15,.88-.23,1.23-.23,.51,0,1.01,.14,1.5,.43,.49,.29,.83,.76,1.02,1.43,1.81-.96,3.38-1.44,4.7-1.44,.94,0,1.62,.21,2.05,.63,.43,.42,.69,.96,.79,1.62,.09,.66,.14,1.61,.14,2.85v2.61c-.03,.75-.04,1.27-.03,1.55,0,.28,.06,.46,.14,.54s.24,.14,.46,.17c.08,0,.35,.06,.81,.16,.46,.1,.73,.15,.8,.16l-.21,.4h-5.57l-.09-.4c.61-.16,1.02-.33,1.24-.51s.38-.58,.48-1.19c.09-.61,.14-1.67,.14-3.18,0-.9-.08-1.66-.23-2.29-.15-.62-.42-1.11-.81-1.44-.39-.34-.93-.5-1.63-.5-.88,0-1.9,.27-3.06,.81,.05,.41,.08,1.12,.1,2.12s.04,2.03,.06,3.09c.02,1.06,.04,1.75,.04,2.06,.02,.26,.06,.45,.13,.55,.07,.1,.2,.18,.39,.23,.19,.05,.6,.12,1.22,.21v.45h-1.83c-.17,0-.78,.02-1.85,.06s-1.7,.06-1.9,.06l-.09-.45c.64-.13,1.11-.29,1.39-.5s.47-.58,.56-1.11c.09-.53,.13-1.44,.11-2.72l-.03-1.42c-.02-1.2-.2-2.12-.55-2.75-.35-.63-.92-.95-1.71-.95-.38,0-.78,.07-1.2,.21s-.82,.3-1.2,.49c-.38,.19-.71,.36-.98,.51,0,.17-.02,.59-.03,1.27s-.02,1.24-.03,1.68v1.49c.02,1.75,.05,2.7,.09,2.86,.04,.18,.18,.33,.42,.48s.77,.27,1.58,.39v.51c-.12,0-.54-.02-1.26-.06s-1.15-.06-1.29-.06l-3.38,.06Z"/><path class="b" d="M273.57,148.86l-7.32,1.58c.05,.92,.14,1.63,.27,2.13,.13,.5,.39,1.01,.79,1.53,.75,.99,1.66,1.48,2.72,1.48,.44,0,.91-.08,1.41-.25s1.05-.46,1.65-.89l.26,.35c-1.7,1.22-3.21,1.83-4.53,1.83-1.4,0-2.49-.53-3.27-1.58s-1.17-2.27-1.17-3.63,.3-2.56,.89-3.48c.6-.92,1.26-1.59,2.01-2.01s1.3-.63,1.69-.63c.44,0,.89,.07,1.37,.21,.47,.14,.94,.41,1.39,.81,.46,.4,.83,.95,1.14,1.64,.09,.15,.17,.24,.25,.29s.22,.07,.43,.07l.03,.54Zm-7.29,1.01l1.92-.41c.08-.04,.37-.12,.89-.23,.51-.12,.86-.19,1.03-.22,.51-.12,.83-.2,.97-.25s.21-.13,.21-.23c0-.16-.12-.42-.35-.8s-.57-.72-1-1.03c-.44-.31-.95-.47-1.53-.47-.73,0-1.25,.39-1.56,1.16-.31,.77-.49,1.6-.56,2.49Z"/><path class="b" d="M274.71,156.27l-.03-.42c.53-.1,.91-.2,1.16-.31,.24-.11,.41-.23,.48-.37s.13-.32,.16-.56c.08-.54,.13-1.19,.16-1.97,.03-.78,.04-1.57,.04-2.37,0-1.11-.04-1.87-.11-2.27-.07-.41-.23-.66-.47-.78-.24-.11-.69-.2-1.34-.27,0-.13,0-.23-.03-.29,.42-.11,.98-.32,1.68-.63,.7-.31,1.07-.48,1.11-.52,.37-.2,.59-.29,.66-.29,.15,0,.24,.14,.28,.42s.06,.75,.06,1.41c1.07-.61,1.96-1.04,2.65-1.3s1.36-.39,1.99-.39c.95,0,1.63,.21,2.07,.62,.44,.42,.7,.92,.8,1.51,.1,.59,.15,1.37,.15,2.34v3.49c0,1.38,.06,2.13,.19,2.26,.07,.07,.32,.15,.75,.25s.68,.16,.75,.19l.03,.45c-.73-.12-1.58-.18-2.55-.18-.82,0-1.8,.06-2.94,.18v-.42c.89-.18,1.44-.45,1.65-.83,.15-.32,.25-1,.3-2.04,.05-1.04,.08-1.85,.08-2.42,0-.86-.04-1.56-.11-2.12s-.28-1.02-.61-1.41c-.33-.39-.85-.59-1.55-.59-.31,0-.79,.06-1.42,.19s-1.38,.42-2.24,.86l-.09,3.9c-.02,1.66,0,2.76,.06,3.3,.02,.23,.07,.41,.14,.53,.07,.12,.24,.22,.49,.32s.68,.17,1.29,.24l-.03,.45c-.22-.02-.52-.04-.93-.07s-.92-.05-1.54-.07h-3.21Z"/><path class="b" d="M290.37,152.27l.07-5.7c-.45-.06-.97-.09-1.57-.09,.02-.08,.03-.2,.03-.37,.85-.52,1.51-1.01,1.99-1.48s1.04-1.13,1.7-1.99l-.15,2.64c.84,.08,1.76,.12,2.75,.12,.48,0,1,0,1.57-.03l-.03,.91c-.51,.06-1.03,.09-1.57,.09-.05,0-.24,0-.57-.02-.33-.02-.85-.04-1.55-.07-.19,0-.33,.02-.42,.05-.09,.04-.16,.1-.19,.2-.04,.1-.06,.28-.07,.56-.01,.27-.03,.56-.04,.86l-.07,4.57c-.02,.88,.08,1.6,.3,2.18,.22,.57,.75,.86,1.59,.86,.32,0,.72-.07,1.2-.22,.47-.14,1.02-.36,1.63-.65,.02,.08,.03,.14,.04,.18,0,.04,.01,.08,.02,.13-.34,.37-.97,.74-1.88,1.11-.91,.36-1.74,.55-2.47,.55-.63,0-1.18-.22-1.63-.65-.45-.43-.68-1.18-.68-2.25v-1.48Z"/></g></svg>