<?xml version="1.0" encoding="UTF-8"?><svg id="a" xmlns="http://www.w3.org/2000/svg" viewBox="0 0 394 279"><defs><style>.b{fill:#bc2451;}.c{fill:#0a4737;stroke:#fff;stroke-miterlimit:10;}</style></defs><ellipse class="c" cx="152" cy="139.5" rx="151.5" ry="139"/><g><path class="b" d="M51.6,156.46l17.38,29.47-12.29,7.25-24.38-41.34,16.02-9.45c7.03-4.14,13.47-5.79,19.33-4.95,6.97,1.03,12.39,4.82,16.25,11.36,3.69,6.26,4.68,12.56,2.98,18.89-1.7,6.34-5.74,11.38-12.1,15.13-.75,.44-1.99,1.12-3.74,2.04l-7.16-12.14,1.97-1.16c7.17-4.23,8.98-9.34,5.45-15.33-3.32-5.63-8.51-6.37-15.55-2.22l-4.15,2.45Z"/><path class="b" d="M112.74,130.62l4.38,9.75-8.5,3.82c-1.15,.52-1.89,1.06-2.22,1.62s-.31,1.24,.06,2.06c.41,.92,.93,1.41,1.55,1.48,.62,.07,1.69-.24,3.21-.92l8.75-3.94,5.62,12.5-10.23,4.6c-4.81,2.16-9,2.67-12.58,1.52-3.58-1.15-6.34-3.9-8.29-8.24l-7.72-17.15c-1.88-4.19-2.14-7.98-.78-11.37s4.23-6.07,8.59-8.03l11.32-5.09,5.65,12.57-8.3,3.74c-2.24,1.01-3.04,2.24-2.39,3.69,.38,.86,.92,1.33,1.6,1.42,.68,.09,1.71-.17,3.08-.79l7.18-3.23Z"/><path class="b" d="M137.8,101.58l4.47,12.92c-1.09,0-1.9,.1-2.43,.28-1.02,.35-1.76,1.03-2.23,2.04-.47,1.01-.52,2.04-.15,3.1,.31,.91,1.11,1.92,2.39,3.04l1.65,1.44c2.98,2.59,4.99,5.39,6.03,8.4,1.53,4.41,1.25,8.68-.83,12.82-2.08,4.14-5.37,6.99-9.89,8.56-2.17,.75-4.49,1-6.96,.74l-4.54-13.12c1.57,.38,2.85,.39,3.85,.04,1.17-.41,2.04-1.08,2.59-2.03s.65-1.93,.3-2.95c-.23-.66-1.36-1.9-3.4-3.7-3.24-2.85-5.48-6.04-6.7-9.58-1.48-4.27-1.23-8.48,.74-12.63,1.98-4.14,5.08-6.95,9.31-8.41,1.86-.64,3.8-.97,5.8-.97Z"/><path class="b" d="M161.55,95.49l11.9,46.49-13.83,3.54-11.9-46.49,13.83-3.54Z"/><path class="b" d="M197.95,110.45l13.49-1.8c3.38,3.21,5.34,6.82,5.88,10.81,.62,4.65-.56,8.78-3.54,12.39-2.98,3.61-6.96,5.75-11.93,6.41-6.46,.86-12.27-.86-17.43-5.16-5.16-4.3-8.21-9.97-9.15-17.01-.94-7.06,.57-13.25,4.53-18.55,3.96-5.3,9.38-8.42,16.26-9.33,2.35-.31,5.01-.18,8,.39l1.89,14.15c-2.37-.75-4.47-1-6.31-.75-3.32,.44-5.9,1.84-7.72,4.19-1.83,2.35-2.52,5.17-2.08,8.47,.45,3.37,1.78,5.91,4,7.62s4.98,2.35,8.31,1.91c2.11-.28,3.09-1.04,2.92-2.27-.12-.93-.88-1.3-2.28-1.12l-3.38,.45-1.44-10.8Z"/><path class="b" d="M222.21,134.83l1.23-31.12c.21-5.46,2.02-9.76,5.42-12.91,3.4-3.15,7.81-4.62,13.24-4.4,5.41,.21,9.49,1.97,12.23,5.27,2.74,3.3,4,7.93,3.76,13.9l-1.21,30.63-14.26-.56,1.21-30.63c.12-2.93-.87-4.43-2.95-4.51-2.01-.08-3.08,1.34-3.19,4.27l-1.21,30.63-14.26-.56Z"/></g></svg>