<?xml version="1.0" encoding="UTF-8"?><svg id="a" xmlns="http://www.w3.org/2000/svg" viewBox="0 0 267.41 259.5"><defs><style>.b{fill:#6abd45;stroke:#3953a4;}.b,.c{stroke-miterlimit:10;stroke-width:3px;}.c{fill:#3953a4;stroke:#6abd45;}</style></defs><ellipse class="c" cx="133.71" cy="129.75" rx="132.21" ry="128.25"/><path class="b" d="M54.46,40.5s-38,36.5-13,57.25,29,58.75,29,58.75l58-32-25-79-49-5Z"/><path class="b" d="M142.46,181.5s48,16,60-59,15,76,15,76l-69,21h-41l35-38Z"/><path class="b" d="M162.46,78.5s4,29,0,32-16,35-16,35l55-47-5-58"/><path class="b" d="M32.94,177.5c40.52,12,47.76,42,47.76,42l26.76,9"/><polyline class="b" points="237.46 101.6 253.46 124.5 245.46 160.55"/></svg>