<?xml version="1.0" encoding="UTF-8"?><svg id="a" xmlns="http://www.w3.org/2000/svg" viewBox="0 0 203 194"><defs><style>.b{fill:#fff;}.c{fill:#ed1c24;}</style></defs><rect class="c" width="203" height="194"/><g><path class="b" d="M67.64,62.67l-.56,.84c-1.39-.06-2.61,.17-3.66,.7-.5-.05-1.25-.14-2.25-.28-.14,.03-.75,.21-1.83,.54-.77,.23-1.38,.35-1.85,.35-.19,0-.36-.02-.52-.05-.28,.31-.74,.78-1.36,1.41h-.52l-.14,.21c-.31,.14-.71,.42-1.2,.84s-.88,.7-1.2,.84v.19l-.52,.52h3.94c.19,.02,.73,.18,1.64,.49,.83,.28,1.37,.4,1.62,.35,.58,.27,1.41,.72,2.49,1.36,.36,.73,.78,1.86,1.27,3.38-.09,.94-.28,1.88-.56,2.84-.27,.23-.6,.76-1.01,1.57-.47,.89-.84,1.49-1.1,1.8-.66,.31-1.6,.83-2.84,1.55v.19c-.41,.34-1.06,.67-1.96,.98s-1.43,.55-1.61,.7h-.7l-.84,.33-.19,.7-.66,.33-.84-.33c-.12-.78-.42-1.41-.89-1.88v-.52h.89l.66-.33c.69,.28,1.14,.39,1.36,.33l1.88-.52v-.19l.52-.14v-.19l1.03-.52,.19-.66,1.17-.42v-1.31l.19-.14c.25-.44,.42-.91,.52-1.41-.38-1.03-.47-2.34-.28-3.91l-.56-.98v-.98l-.7-.42v-.38c-.7-.44-1.96-.66-3.76-.66-.16,0-.67,.11-1.55,.33-.28,.7-.72,1.45-1.31,2.25l-.05,1.69-.33,.52h-.19l-.19,.14,.19,.38v.33l-.56,.73v.14l-.19,.19,.19,.33v.52l-.73,.33-.19,1.22,.19,.14,.28,.47c-.11,.41-.37,.77-.8,1.08h-.14l-.19,.19-.23,1.64c-.83,.98-1.26,2.09-1.31,3.33l-.66,.87-.47,1.92c.09,.56,.14,.89,.14,.98,0-.22-.06,.3-.19,1.55l-.84,.94c-.27,.89-.8,2.2-1.59,3.91v1.12c-.72,.44-1.55,1.02-2.48,1.73l-.38,.84-1.2,.33v.33l-1.17,.7c-.36,.06-.89,.17-1.59,.33l-.7-.14c-.34,.06-.81,.2-1.41,.42l-.89-.61c-.3,.03-.77-.03-1.41-.19l-.14-.33-.84-.19c-.23-.31-.88-.7-1.95-1.17-.69-.98-1.25-1.72-1.69-2.2-.12-1.75-.19-2.45-.19-2.09s.06-.23,.19-1.73c.23-.33,.52-.83,.84-1.5v-.89l.38-.33,.66-.19v-.33h.73c.45,.16,.95,.33,1.5,.52l.89,1.22,.14,.66-.33,.33-.19,1.73-.33,.52h-.66l-1.03-1.36-.91-.19-.33,.52v1.88c0,.11,.17,.68,.52,1.71,1.42,.69,2.29,1.33,2.6,1.92l1.36,.33,1.36-.33,1.03-.7,.33,.19,.84-.38,.8-.8c.33-1,1.09-2.21,2.27-3.63,.2-.83,.48-1.88,.84-3.14l.89-.23-.19-.7c.2-.72,.36-1.61,.47-2.67l.66-.56c.14-.67,.19-1.38,.14-2.13h.19c.17-.58,.23-1.09,.19-1.55h.14l.52-1.55,.89-.84,.42-1.27-.28-.42,.7-1.22-.33-.33,.75-1.12-.14-.96,.84-.52,.19-.33-.19-1.03,.84-.84v-.52l.52-.33c.27-.69,.61-1.27,1.03-1.73v-.66h-.14c-1.56,.27-2.66,.38-3.28,.33-.89,.38-2.23,.92-4.03,1.64-.41,.11-1.01,.3-1.8,.56-.12,.03-.41,.27-.84,.7l-1.03,.33c-.36,.72-1.16,1.41-2.39,2.06-.52,1.05-1.08,1.74-1.69,2.09l-.19,.33-.66,.52v.84l-.38,.84,.38,.19c-.03,.42,.02,.98,.14,1.69l1.03-.14,.7-.52,1.22-.33,1.31-1.03,.38-.7,.52-.33c.16-.36,.2-.77,.14-1.22-.2-.41-.42-.69-.66-.84v-.54c.14-.2,.53-.48,1.17-.84v-.19l.52-.14c.55,.14,1.07,.53,1.57,1.17l-.19,1.05-.33,.52-.14,1.36-.59,1.12c-.61,.52-1.34,.83-2.2,.94-.61,.73-1.64,1.3-3.09,1.69l-1.88-.14-1.17-.7c-.11-.25-.28-.47-.52-.66,.05-.17,0-.52-.16-1.03s-.21-.92-.16-1.22c.42-.72,.88-1.23,1.36-1.55l.66-1.38c.27-.31,.69-.75,1.27-1.31,1.14-.91,2.08-1.59,2.81-2.06,.33-.12,.8-.34,1.41-.66,.33-.28,.84-.66,1.55-1.12,.27-.08,.65-.2,1.15-.38,.44-.25,1.09-.58,1.97-.98,.86-.31,2.16-.59,3.89-.84,.44,.02,1.12-.08,2.06-.28,.58,.3,1.15,.39,1.71,.28,.28-.11,.62-.39,1.01-.84,.28-.34,.57-.69,.87-1.03,.53-.52,1.09-.96,1.69-1.34,.97-.48,2.39-1.23,4.27-2.25,.56,.02,1.56-.2,3-.63,1.38-.41,2.34-.77,2.88-1.1,.08,0,.2,0,.35,.02s.27,.02,.35,.02c.16,0,.4-.03,.74-.09,.34-.06,.59-.09,.76-.09,.19,0,.51,.04,.96,.11,.45,.07,.81,.1,1.06,.08l.42,1.41Z"/><path class="b" d="M75.96,74.88l-.33,.19h-1.03c-.33-.09-.48-.14-.47-.14-.34,0-.78,.12-1.31,.38-.61,.27-1.05,.42-1.33,.47-.23,.44-.58,.91-1.03,1.43,0,.12,0,.31,.02,.56s.02,.44,.02,.56c-.2,.52-.5,.97-.89,1.36l-.14,1.88-.42,.52v1.22c-.45,.39-.75,.8-.89,1.22l.05,.7c-.27,.61-.36,1.05-.28,1.34-.34,.45-.59,.86-.75,1.22-.03,.28-.15,.88-.35,1.8-.19,.83-.27,1.3-.26,1.43-.31,.25-.56,.42-.75,.52l.23,.52-.37,.33c-.11,.19-.23,.56-.38,1.12l-.47,.56-.14,1.41-.37,.68c0,1.05-.39,1.84-1.18,2.39l-.71,.19c-.38,.36-.9,.81-1.58,1.36-.66,.25-1.29,.42-1.88,.52-.34-.2-.85-.27-1.5-.19l-.38-.14-.85-.89v-.66l.71-.52h.33l.33,.33,.85,.38c.31-.14,.65-.39,1-.75s.65-.59,.88-.7c.09-.27,.22-.67,.38-1.22,0-.62,.11-1.51,.33-2.65h.19v-.38l.33-.66v-.89l.54-.66c.3-1.5,.75-2.53,1.36-3.09,.03-.36,.36-1.51,.98-3.45,.03-.31,.12-.77,.28-1.36,.33-.48,.75-1.23,1.27-2.25l-.14-.66,.19-.84,.66-.19,.19-.33v-.66l.33-.19,.51-1.22c.39-.45,.98-1.04,1.78-1.76l.56,.05,.42-.52h.33c.31-.33,.87-.59,1.66-.8,.92-.22,1.51-.41,1.78-.56,.52,.12,.91,.17,1.17,.14l.51,.7v.84Z"/><path class="b" d="M86.72,88.1l-.19,.33-.33,.19v.19l-1.35,.14-.19,.38v.47l-.14,.19v.52h-.19v.19l-.28,.33-.09,.42-.38,.28,.14,.33c-.14,.25-.34,.81-.59,1.69l-.71,.84h.19v.19c-.52,.34-.93,.7-1.22,1.05l-.09,.28,.09,.23-.19,1.55h-.14v.33l-.33,.52,.14,.33,.52,.14c.41-.45,1.04-.84,1.9-1.17l.28,.52-.45,.89c-.69,.44-1.27,1-1.73,1.69-.94,.27-1.56,.38-1.88,.33v-.14h-.52c-.3-.36-.64-.66-1.03-.89,.03-.36-.02-.86-.14-1.5l-.38-.38h-.14c-.72,.61-1.12,1.06-1.22,1.36l-.84,.19-.33,.52-.98,.38-.59-.19-.56,.09c-.58-.36-1.08-.56-1.5-.61l-.66-.52c-.47-1.06-.7-1.83-.7-2.3,0-.25,.06-.56,.19-.94h.14c.08-.22,.19-.62,.33-1.2l-.14-.38v-.19c0-.16,.1-.38,.29-.68s.3-.52,.32-.68c.94-.66,1.5-1.62,1.69-2.91,.33-.22,.59-.45,.77-.7,.56-.19,.97-.34,1.22-.47h.19c.34-.41,.73-.75,1.17-1.03l.19-.38,1.55-.52,1.36,.19,.52,.33h.66l.7-.66h.66l.89,.33,.68-.19,.38,.19,.14,.33,1.22-.14,.52-.38,.33,.19,.52-.19c.14,.14,.25,.38,.33,.7Zm-5.32,.7l-1.03-.38c-.62,.17-1.19,.23-1.69,.19l-1.22,.52-.66,.66c-.05,.25-.32,1-.83,2.25s-.81,1.91-.9,1.97l-.09,.52-.47,.42-.09,.33,.09,.33-.52,.73v.61l-.28,.28v.47l-.19,.33v.19l-.49,.19v.66l.14,.19,.73,.33c.38-.12,.94-.47,1.69-1.03h.19l.52-.33c.17-.25,.45-.59,.84-1.03v-.14l.33-.19c.34-.62,.86-1.54,1.55-2.74v-.19l.52-.52c.05-.52,.25-1.08,.61-1.69-.03-.11,.02-.41,.14-.89l.38-.14v-.19l-.09-.19c.09-.22,.27-.55,.52-.98h.14l.19-.52Z"/><path class="b" d="M104.11,89.22l-.14,.19v.87l-.19,.19-.38,.87,.14,.33-.19,.19c-.05,.36-.16,.86-.35,1.5l.09,.23c-.31,.42-.68,1.05-1.1,1.9-.44,.92-.66,1.57-.66,1.95l-.35,.52,.09,.68c.69-.5,1.2-.99,1.55-1.48l.61-.26,.73,.19c-.06,.33-.35,.8-.87,1.41-.59,.7-.98,1.23-1.15,1.57l-.33,.21v.14l-1.15,.73c-.52-.05-1.11-.34-1.78-.87-.08-.14-.26-.32-.54-.54l-.23-.52v-.54l-.19-.33,.14-.4-.05-.52c0-.66,.33-1.58,1-2.78s.97-2.25,.93-3.18c.31-.56,.54-1.25,.68-2.06l-.49-.19-.19,.19v.14l-1.05,.73v.19l-.68,.14v.19c-.52,.17-.87,.4-1.05,.68v.38c-.2,.14-.62,.26-1.24,.35v.33h-.33l-.16,.19h-.19l-.19,.33v.4l-.52,.14v.33l-.26,.54-.05,.82c-.2,.3-.39,.78-.56,1.44s-.35,1.14-.54,1.44c-.3,.19-.6,.52-.91,1.01-.36,.56-.63,.93-.82,1.1-.56,.12-1.42,.31-2.58,.56l-.59-.23-.82,.23-.89-.61-.4-.91,.19-.82,.54-.19c.48,.23,.88,.45,1.2,.66l.87-.14,.59-.38,.14-1.01,.19-.14c-.02-.56,.05-1.06,.19-1.5,.23-.44,.57-1.11,1.01-2.02,.16-.75,.51-1.85,1.05-3.3l-.14-.54,.14-.38-.33-.33-.54,.19v.14l-.7,.19-.49,.33c-.7,.11-1.3,.24-1.78,.4l-.87-.4-.19-.52,.19-.33c1.66,.03,3.41-.5,5.25-1.59h.38l1.15-.82,.59-.09,.52,.23c.69,.7,.98,1.28,.87,1.73l-.33,.19v.35l-.35,.52c.03,.12,0,.35-.09,.68l.09,.38,.35,.19c.59-.2,1.23-.55,1.92-1.05v-.19h.19l.47-.33h.21l.52-.4,.19-.33,.68-.14v-.19c.47-.25,.88-.43,1.24-.54l.14-.19h.4c.47-.19,.82-.41,1.05-.68h.52l.14,.35h.21c.27,.33,.48,.79,.66,1.38v.54Z"/><path class="b" d="M124.03,89.22l-.14,.19v.87l-.19,.19-.38,.87,.14,.33-.19,.19c-.05,.36-.16,.86-.35,1.5l.09,.23c-.31,.42-.68,1.05-1.1,1.9-.44,.92-.66,1.57-.66,1.95l-.35,.52,.09,.68c.69-.5,1.2-.99,1.55-1.48l.61-.26,.73,.19c-.06,.33-.35,.8-.87,1.41-.59,.7-.98,1.23-1.15,1.57l-.33,.21v.14l-1.15,.73c-.52-.05-1.11-.34-1.78-.87-.08-.14-.26-.32-.54-.54l-.23-.52v-.54l-.19-.33,.14-.4-.05-.52c0-.66,.33-1.58,1-2.78s.97-2.25,.93-3.18c.31-.56,.54-1.25,.68-2.06l-.49-.19-.19,.19v.14l-1.05,.73v.19l-.68,.14v.19c-.52,.17-.87,.4-1.05,.68v.38c-.2,.14-.62,.26-1.24,.35v.33h-.33l-.16,.19h-.19l-.19,.33v.4l-.52,.14v.33l-.26,.54-.05,.82c-.2,.3-.39,.78-.56,1.44s-.35,1.14-.54,1.44c-.3,.19-.6,.52-.91,1.01-.36,.56-.63,.93-.82,1.1-.56,.12-1.42,.31-2.58,.56l-.59-.23-.82,.23-.89-.61-.4-.91,.19-.82,.54-.19c.48,.23,.88,.45,1.2,.66l.87-.14,.59-.38,.14-1.01,.19-.14c-.02-.56,.05-1.06,.19-1.5,.23-.44,.57-1.11,1.01-2.02,.16-.75,.51-1.85,1.05-3.3l-.14-.54,.14-.38-.33-.33-.54,.19v.14l-.7,.19-.49,.33c-.7,.11-1.3,.24-1.78,.4l-.87-.4-.19-.52,.19-.33c1.66,.03,3.41-.5,5.25-1.59h.38l1.15-.82,.59-.09,.52,.23c.69,.7,.98,1.28,.87,1.73l-.33,.19v.35l-.35,.52c.03,.12,0,.35-.09,.68l.09,.38,.35,.19c.59-.2,1.23-.55,1.92-1.05v-.19h.19l.47-.33h.21l.52-.4,.19-.33,.68-.14v-.19c.47-.25,.88-.43,1.24-.54l.14-.19h.4c.47-.19,.82-.41,1.05-.68h.52l.14,.35h.21c.27,.33,.48,.79,.66,1.38v.54Z"/><path class="b" d="M135.77,97.08c.03,.27-.08,.66-.33,1.17l-.33,.19-.19,.33h-.19l-.33,.38-.7,.14c-.05,.11-.15,.27-.3,.47s-.26,.36-.3,.47l-.56,.42-.7,.19-.14,.19-.7,.14-.19,.19-.87-.33c-.7,.06-1.39-.06-2.06-.38v-.14c-.12-.19-.23-.31-.33-.38l-.33-.14c-.28-.5-.42-1-.42-1.5l.23-.56c.25-.17,.67-.81,1.27-1.92,.39-.72,.78-1.45,1.17-2.18,.03-.38,.3-1.23,.8-2.58v-.33l.19-.19v-.19h.21l.38-.75-.05-.75-.19-.19c-.45,.05-.85,.22-1.2,.52v.19c-.62,.19-1.08,.34-1.36,.47l-.38,.38c-.31,.05-.64,.16-.98,.33l-.38-.05-.33-.28-.09-.38,.09-.47c.55-.44,1-.69,1.36-.75l1.5-.28c.2-.09,.5-.23,.89-.42,.92-.41,2.07-.61,3.45-.61,.03,0,.15,.02,.35,.07s.32,.07,.35,.07c.28,.28,.5,.62,.66,1.03h.19c.12,.2,.19,.62,.19,1.27,0,.06-.05,.33-.14,.8-.11,.08-.36,.36-.75,.84l-.52,.19-.14,.52h-.19l-.33,.33c.05,.45-.02,.97-.19,1.55h-.14c-.06,.39-.19,.73-.37,1.03l-.51,.47c-.37,1.2-.55,1.85-.51,1.95h-.14c-.03,.28-.11,.69-.23,1.22l.05,.56c.47-.03,1.11-.29,1.93-.76s1.32-.93,1.49-1.35l.56-.33,.42-.05,.38,.19Zm2.3-17.95l-.33,.28c-.09,.69-.33,1.16-.7,1.41v.47l-.38,.42-.19,.66-.61,.14c-.06,.48-.22,.88-.47,1.17-.34,.2-.66,.47-.94,.8l-.61,.19-.42-.98c.03-.34,.05-.86,.05-1.55,.42-.69,.53-1.41,.33-2.16,.22-.55,.5-1.02,.84-1.41l.84-.33,.19-.19c.25-.12,.52-.19,.8-.19h.75c.34,.16,.62,.39,.84,.7v.56Z"/><path class="b" d="M155.37,89.22l-.14,.19v.87l-.19,.19-.38,.87,.14,.33-.19,.19c-.05,.36-.16,.86-.35,1.5l.09,.23c-.31,.42-.68,1.05-1.1,1.9-.44,.92-.66,1.57-.66,1.95l-.35,.52,.09,.68c.69-.5,1.2-.99,1.55-1.48l.61-.26,.73,.19c-.06,.33-.35,.8-.87,1.41-.59,.7-.98,1.23-1.15,1.57l-.33,.21v.14l-1.15,.73c-.52-.05-1.11-.34-1.78-.87-.08-.14-.26-.32-.54-.54l-.23-.52v-.54l-.19-.33,.14-.4-.05-.52c0-.66,.33-1.58,1-2.78s.97-2.25,.93-3.18c.31-.56,.54-1.25,.68-2.06l-.49-.19-.19,.19v.14l-1.05,.73v.19l-.68,.14v.19c-.52,.17-.87,.4-1.05,.68v.38c-.2,.14-.62,.26-1.24,.35v.33h-.33l-.16,.19h-.19l-.19,.33v.4l-.52,.14v.33l-.26,.54-.05,.82c-.2,.3-.39,.78-.56,1.44s-.35,1.14-.54,1.44c-.3,.19-.6,.52-.91,1.01-.36,.56-.63,.93-.82,1.1-.56,.12-1.42,.31-2.58,.56l-.59-.23-.82,.23-.89-.61-.4-.91,.19-.82,.54-.19c.48,.23,.88,.45,1.2,.66l.87-.14,.59-.38,.14-1.01,.19-.14c-.02-.56,.05-1.06,.19-1.5,.23-.44,.57-1.11,1.01-2.02,.16-.75,.51-1.85,1.05-3.3l-.14-.54,.14-.38-.33-.33-.54,.19v.14l-.7,.19-.49,.33c-.7,.11-1.3,.24-1.78,.4l-.87-.4-.19-.52,.19-.33c1.66,.03,3.41-.5,5.25-1.59h.38l1.15-.82,.59-.09,.52,.23c.69,.7,.98,1.28,.87,1.73l-.33,.19v.35l-.35,.52c.03,.12,0,.35-.09,.68l.09,.38,.35,.19c.59-.2,1.23-.55,1.92-1.05v-.19h.19l.47-.33h.21l.52-.4,.19-.33,.68-.14v-.19c.47-.25,.88-.43,1.24-.54l.14-.19h.4c.47-.19,.82-.41,1.05-.68h.52l.14,.35h.21c.27,.33,.48,.79,.66,1.38v.54Z"/><path class="b" d="M173.65,88.62l-.64,.66c-.12,.62-.12,1.14,0,1.55l-.69,.19-.33,.52h-.19v.33c-.09,.47-.32,1.16-.68,2.06v.66l-.19,.47v.42l-.42,.49c-.14,.45-.31,1.14-.52,2.06h-.14l-.19,.33h-.19l.09,.56c-.14,.3-.16,.56-.05,.8l-.66,.47c.06,.38,.09,.67,.09,.89,0,.31-.13,.74-.4,1.29s-.42,.96-.45,1.24l-.61,.47v.47l.19,.14-.14,.23-.05,.28-.33,.19c-.24,.3-.41,.65-.52,1.05-.25,.34-.66,.8-1.22,1.36l-.14,.7-.33,.47,.05,.42-.23,.47v.14h-.19c-.39,.52-.89,.92-1.5,1.22-.25,.39-.48,.67-.7,.84h-.19l-.14,.33c-.7,.3-1.29,.47-1.76,.52l-.33,.38h-.19v.14c-.28,.16-.67,.39-1.17,.7-1.94,.3-3.53,.41-4.78,.33-.06-.09-.19-.2-.38-.33-.47,.05-.98-.02-1.52-.19-.09-.09-.27-.2-.52-.33h-1.22l-.66-.52-.23-.47-.66-.33-.33-.42v-.66l.19-.33v-.38l.66-1.03v-.14c.08-.05,.25-.33,.52-.84l.52-.38,1.03-.14,.19-.19h1.2c.36,.08,.59,.14,.7,.19v-.19l1.03,.19v.33h.14v.19h.19l.19,.14v.33l-.38,.19v.52l-.14,.19-.89,.14c-.38-.25-.66-.42-.84-.52h-.33l-.19-.33-1.71,.33-.19,.19v.19l-.33,.52c.3,.69,.41,1.19,.33,1.5h.33v.19l.52,.33c.53-.14,1.46,.09,2.79,.7,.75-.12,1.09-.19,1.03-.19-.25,0,.25,.06,1.5,.19,.44-.14,.84-.38,1.22-.7v-.14c.64-.11,1.16-.41,1.55-.89l.52-.14v-.19l.66-.14c.19-.27,.73-1.3,1.64-3.09,.77-1.53,1.32-2.43,1.66-2.7,.14-.22,.25-.58,.33-1.08,.36-.5,.62-1.02,.8-1.57,.31-.92,.48-1.43,.52-1.52l.14-.14v-.19l.52-.19c.12-.39,.3-.67,.52-.84l.14-.66c.36-.52,.7-.94,1.03-1.27l.09-.98,.19-.33h.14c-.09-.48,.05-1.1,.42-1.85l-.14-.42c.14-.28,.23-.73,.28-1.34,.06-.75,.11-1.21,.14-1.38l.52-.84c-.39-.31-.62-.59-.7-.84l-.84-.38c-.94,.23-1.63,.61-2.07,1.12l-.19,.84c-.42,.2-.81,.52-1.17,.94v.52h-.19l-.14,.84-.19,.19c-.12,.38-.23,.66-.33,.84l-.61,.47-.23,.56c-.08,.2-.14,.49-.19,.87l-.33,.19-.21,1.22,.21,.14h.98l1.03-.52,.38-.52v-.14l.52-.52,.84-.38v-.14c.88-.14,1.33-.21,1.36-.21v.54l-.19,.19v.14l-.14,.19-.89,.52,.19,.33-.19,.19v.19l-.52,.14c-1.14,1.09-2.31,1.64-3.52,1.64-.23,0-.54-.03-.91-.09l-.61-.52-.61-.19-.7-.56c-.02-.22-.1-.73-.26-1.52-.09-.55-.12-1.16-.07-1.83,.14-.31,.31-.78,.52-1.41h.38v-.33h.33l.14-.33,.38-.19c.14-.42,.44-.83,.89-1.22l.09-.33c.16-.28,.68-.72,1.57-1.31s1.53-.95,1.92-1.08c1.03-.34,2.22-.52,3.56-.52,.14,0,.37,.05,.69,.14s.56,.14,.71,.14c.09,0,.25-.02,.47-.06s.39-.05,.52-.04l.52-.52,.87,.19,1.22-.19,.14,.19v.52Z"/></g></svg>