<?xml version="1.0" encoding="UTF-8"?><svg id="a" xmlns="http://www.w3.org/2000/svg" viewBox="0 0 324.98 325.49"><defs><style>.b{fill:#fff;}.c{fill:#ed2024;}.d{fill:#6dbe45;}</style></defs><g><polygon class="c" points="0 153.59 161.29 325.49 162.49 324.37 162.49 1.13 0 153.59"/><polygon class="d" points="163.69 0 162.49 1.13 162.49 324.37 324.98 171.9 163.69 0"/></g><g><path class="b" d="M56.08,127.15l-.52,.78c-1.28-.06-2.41,.16-3.37,.65-.46-.04-1.15-.13-2.08-.26-.13,.03-.69,.19-1.69,.5-.71,.22-1.28,.32-1.71,.32-.17,0-.33-.01-.48-.04-.26,.29-.68,.72-1.25,1.3h-.48l-.13,.19c-.29,.13-.66,.39-1.1,.78-.45,.39-.81,.65-1.1,.78v.17l-.48,.48h3.63c.17,.01,.68,.17,1.51,.45,.76,.26,1.26,.37,1.49,.32,.53,.25,1.3,.66,2.29,1.25,.33,.68,.72,1.71,1.17,3.11-.09,.86-.26,1.74-.52,2.61-.25,.22-.55,.7-.93,1.45-.43,.82-.77,1.38-1.02,1.66-.6,.29-1.48,.76-2.61,1.43v.17c-.38,.32-.98,.62-1.8,.91s-1.32,.5-1.48,.65h-.65l-.78,.3-.17,.65-.6,.3-.78-.3c-.12-.72-.39-1.3-.82-1.73v-.48h.82l.6-.3c.63,.26,1.05,.36,1.25,.3l1.73-.48v-.17l.48-.13v-.17l.95-.48,.17-.6,1.08-.39v-1.21l.17-.13c.23-.4,.39-.83,.48-1.3-.35-.95-.43-2.15-.26-3.61l-.52-.91v-.91l-.65-.39v-.35c-.65-.4-1.8-.6-3.46-.6-.14,0-.62,.1-1.43,.3-.26,.65-.66,1.34-1.21,2.07l-.04,1.56-.3,.48h-.17l-.17,.13,.17,.35v.3l-.52,.67v.13l-.17,.17,.17,.3v.48l-.67,.3-.17,1.12,.17,.13,.26,.43c-.1,.37-.35,.71-.73,.99h-.13l-.17,.17-.22,1.51c-.76,.91-1.17,1.93-1.21,3.07l-.6,.8-.43,1.77c.09,.52,.13,.82,.13,.91,0-.2-.06,.27-.17,1.43l-.78,.86c-.24,.82-.73,2.02-1.47,3.61v1.04c-.66,.4-1.43,.94-2.29,1.6l-.35,.78-1.1,.3v.3l-1.08,.65c-.33,.06-.82,.16-1.47,.3l-.65-.13c-.32,.06-.75,.19-1.3,.39l-.82-.56c-.27,.03-.71-.03-1.3-.17l-.13-.3-.78-.17c-.22-.29-.81-.65-1.79-1.08-.63-.91-1.15-1.58-1.56-2.03-.12-1.61-.17-2.25-.17-1.92s.06-.22,.17-1.6c.22-.3,.48-.76,.78-1.38v-.82l.35-.3,.6-.17v-.3h.67c.42,.14,.88,.3,1.38,.48l.82,1.12,.13,.6-.3,.3-.17,1.6-.3,.48h-.6l-.95-1.25-.84-.17-.3,.48v1.73c0,.1,.16,.63,.48,1.58,1.31,.63,2.11,1.22,2.4,1.77l1.25,.3,1.25-.3,.95-.65,.3,.17,.78-.35,.73-.74c.3-.92,1-2.04,2.1-3.35,.19-.76,.45-1.73,.78-2.89l.82-.22-.17-.65c.19-.66,.33-1.48,.43-2.46l.6-.52c.13-.62,.17-1.27,.13-1.97h.17c.16-.53,.22-1.01,.17-1.43h.13l.48-1.43,.82-.78,.39-1.17-.26-.39,.65-1.12-.3-.3,.69-1.04-.13-.89,.78-.48,.17-.3-.17-.95,.78-.78v-.48l.48-.3c.24-.63,.56-1.17,.95-1.6v-.6h-.13c-1.44,.25-2.45,.35-3.02,.3-.82,.35-2.06,.85-3.72,1.51-.37,.1-.93,.27-1.66,.52-.12,.03-.37,.25-.78,.65l-.95,.3c-.33,.66-1.07,1.3-2.2,1.9-.48,.97-.99,1.61-1.56,1.92l-.17,.3-.6,.48v.78l-.35,.78,.35,.17c-.03,.39,.01,.91,.13,1.56l.95-.13,.65-.48,1.12-.3,1.21-.95,.35-.65,.48-.3c.14-.33,.19-.71,.13-1.12-.19-.37-.39-.63-.6-.78v-.5c.13-.19,.49-.45,1.08-.78v-.17l.48-.13c.5,.13,.99,.49,1.45,1.08l-.17,.97-.3,.48-.13,1.25-.54,1.04c-.56,.48-1.24,.76-2.03,.86-.56,.68-1.51,1.2-2.85,1.56l-1.73-.13-1.08-.65c-.1-.23-.26-.43-.48-.6,.04-.16,0-.48-.15-.95-.14-.48-.19-.85-.15-1.12,.39-.66,.81-1.14,1.25-1.43l.6-1.27c.24-.29,.63-.69,1.17-1.21,1.05-.83,1.91-1.47,2.59-1.9,.3-.12,.73-.32,1.3-.6,.3-.26,.78-.6,1.43-1.04,.24-.07,.6-.19,1.06-.35,.4-.23,1.01-.53,1.81-.91,.79-.29,1.99-.55,3.59-.78,.4,.01,1.04-.07,1.9-.26,.53,.27,1.06,.36,1.58,.26,.26-.1,.57-.36,.93-.78,.26-.32,.53-.63,.8-.95,.49-.48,1.01-.89,1.56-1.23,.89-.45,2.2-1.14,3.93-2.07,.52,.01,1.44-.18,2.77-.58,1.27-.37,2.15-.71,2.66-1.02,.07,0,.18,0,.32,.02,.14,.01,.25,.02,.32,.02,.14,0,.37-.03,.68-.09,.31-.06,.54-.09,.7-.09,.17,0,.47,.03,.89,.1s.74,.09,.97,.08l.39,1.3Z"/><path class="b" d="M63.75,138.4l-.3,.17h-.95c-.3-.09-.44-.13-.43-.13-.32,0-.72,.12-1.21,.35-.56,.25-.97,.39-1.23,.43-.22,.4-.53,.84-.95,1.32,0,.12,0,.29,.02,.52,.01,.23,.02,.4,.02,.52-.19,.48-.46,.89-.82,1.25l-.13,1.73-.39,.48v1.12c-.42,.36-.69,.73-.82,1.12l.04,.65c-.24,.56-.33,.97-.26,1.23-.32,.42-.55,.79-.69,1.12-.03,.26-.14,.81-.32,1.66-.17,.76-.25,1.2-.24,1.32-.29,.23-.52,.39-.69,.48l.22,.48-.35,.3c-.1,.17-.22,.52-.35,1.04l-.43,.52-.13,1.3-.35,.63c0,.97-.36,1.7-1.08,2.2l-.65,.17c-.35,.33-.83,.75-1.45,1.25-.61,.23-1.19,.39-1.73,.48-.32-.19-.78-.24-1.39-.17l-.35-.13-.78-.82v-.6l.65-.48h.3l.3,.3,.78,.35c.29-.13,.6-.36,.92-.69,.32-.33,.6-.55,.81-.65,.09-.24,.2-.62,.35-1.12,0-.58,.1-1.39,.3-2.44h.17v-.35l.3-.6v-.82l.5-.6c.27-1.38,.69-2.33,1.25-2.85,.03-.33,.33-1.39,.91-3.18,.03-.29,.12-.71,.26-1.25,.3-.45,.69-1.14,1.17-2.07l-.13-.6,.17-.78,.6-.17,.17-.3v-.6l.3-.17,.47-1.12c.36-.42,.91-.96,1.64-1.62l.52,.04,.39-.48h.3c.29-.3,.8-.55,1.53-.73,.85-.2,1.4-.37,1.64-.52,.47,.12,.83,.16,1.08,.13l.47,.65v.78Z"/><path class="b" d="M73.66,150.59l-.17,.3-.3,.17v.17l-1.25,.13-.17,.35v.43l-.13,.17v.48h-.17v.17l-.26,.3-.09,.39-.35,.26,.13,.3c-.13,.23-.31,.75-.54,1.56l-.65,.78h.17v.17c-.48,.32-.85,.64-1.13,.97l-.09,.26,.09,.22-.17,1.43h-.13v.3l-.3,.48,.13,.3,.48,.13c.37-.42,.96-.78,1.75-1.08l.26,.48-.41,.82c-.63,.4-1.17,.92-1.6,1.56-.86,.25-1.44,.35-1.73,.3v-.13h-.48c-.27-.33-.59-.6-.95-.82,.03-.33-.01-.79-.13-1.38l-.35-.35h-.13c-.66,.56-1.04,.98-1.12,1.25l-.78,.17-.3,.48-.91,.35-.54-.17-.52,.09c-.53-.33-.99-.52-1.38-.56l-.6-.48c-.43-.98-.65-1.69-.65-2.12,0-.23,.06-.52,.17-.86h.13c.07-.2,.17-.57,.3-1.1l-.13-.35v-.17c0-.14,.09-.35,.27-.63,.18-.27,.28-.48,.29-.63,.86-.6,1.38-1.5,1.56-2.68,.3-.2,.54-.42,.71-.65,.52-.17,.89-.32,1.12-.43h.17c.32-.37,.68-.69,1.08-.95l.17-.35,1.43-.48,1.25,.17,.48,.3h.6l.65-.6h.6l.82,.3,.63-.17,.35,.17,.13,.3,1.12-.13,.48-.35,.3,.17,.48-.17c.13,.13,.23,.35,.3,.65Zm-4.9,.65l-.95-.35c-.58,.16-1.09,.22-1.56,.17l-1.12,.48-.6,.6c-.04,.23-.3,.92-.77,2.07-.47,1.15-.75,1.76-.83,1.81l-.09,.48-.43,.39-.09,.3,.09,.3-.48,.67v.56l-.26,.26v.43l-.17,.3v.17l-.45,.17v.6l.13,.17,.67,.3c.35-.12,.86-.43,1.56-.95h.17l.48-.3c.16-.23,.42-.55,.78-.95v-.13l.3-.17c.32-.58,.79-1.42,1.43-2.53v-.17l.48-.48c.04-.48,.23-.99,.56-1.56-.03-.1,.01-.37,.13-.82l.35-.13v-.17l-.09-.17c.09-.2,.25-.5,.48-.91h.13l.17-.48Z"/><path class="b" d="M89.69,151.62l-.13,.17v.8l-.17,.17-.35,.8,.13,.3-.17,.17c-.04,.33-.15,.79-.32,1.38l.09,.22c-.29,.39-.63,.97-1.02,1.75-.4,.85-.6,1.45-.6,1.79l-.32,.48,.09,.63c.63-.46,1.11-.91,1.43-1.36l.56-.24,.67,.17c-.06,.3-.32,.73-.8,1.3-.55,.65-.9,1.13-1.06,1.45l-.3,.19v.13l-1.06,.67c-.48-.04-1.02-.31-1.64-.8-.07-.13-.24-.3-.5-.5l-.22-.48v-.5l-.17-.3,.13-.37-.04-.48c0-.6,.31-1.46,.92-2.56,.61-1.1,.9-2.08,.85-2.93,.29-.52,.5-1.15,.63-1.9l-.45-.17-.17,.17v.13l-.97,.67v.17l-.63,.13v.17c-.48,.16-.8,.37-.97,.63v.35c-.19,.13-.57,.24-1.15,.32v.3h-.3l-.15,.17h-.17l-.17,.3v.37l-.48,.13v.3l-.24,.5-.04,.76c-.19,.27-.36,.72-.52,1.33-.16,.61-.32,1.06-.5,1.33-.27,.17-.55,.48-.84,.93-.33,.52-.58,.86-.76,1.02-.52,.12-1.31,.29-2.38,.52l-.54-.22-.76,.22-.82-.56-.37-.84,.17-.76,.5-.17c.45,.22,.81,.42,1.1,.6l.8-.13,.54-.35,.13-.93,.17-.13c-.01-.52,.04-.98,.17-1.38,.22-.4,.53-1.02,.93-1.86,.14-.69,.47-1.71,.97-3.05l-.13-.5,.13-.35-.3-.3-.5,.17v.13l-.65,.17-.45,.3c-.65,.1-1.2,.22-1.64,.37l-.8-.37-.17-.48,.17-.3c1.53,.03,3.14-.46,4.84-1.47h.35l1.06-.76,.54-.09,.48,.22c.63,.65,.9,1.18,.8,1.6l-.3,.17v.32l-.32,.48c.03,.12,0,.32-.09,.63l.09,.35,.32,.17c.55-.19,1.14-.51,1.77-.97v-.17h.17l.43-.3h.19l.48-.37,.17-.3,.63-.13v-.17c.43-.23,.81-.4,1.15-.5l.13-.17h.37c.43-.17,.76-.38,.97-.63h.48l.13,.32h.19c.24,.3,.45,.73,.6,1.27v.5Z"/><path class="b" d="M108.06,151.62l-.13,.17v.8l-.17,.17-.35,.8,.13,.3-.17,.17c-.04,.33-.15,.79-.32,1.38l.09,.22c-.29,.39-.63,.97-1.02,1.75-.4,.85-.6,1.45-.6,1.79l-.32,.48,.09,.63c.63-.46,1.11-.91,1.43-1.36l.56-.24,.67,.17c-.06,.3-.32,.73-.8,1.3-.55,.65-.9,1.13-1.06,1.45l-.3,.19v.13l-1.06,.67c-.48-.04-1.02-.31-1.64-.8-.07-.13-.24-.3-.5-.5l-.22-.48v-.5l-.17-.3,.13-.37-.04-.48c0-.6,.31-1.46,.92-2.56,.61-1.1,.9-2.08,.85-2.93,.29-.52,.5-1.15,.63-1.9l-.45-.17-.17,.17v.13l-.97,.67v.17l-.63,.13v.17c-.48,.16-.8,.37-.97,.63v.35c-.19,.13-.57,.24-1.15,.32v.3h-.3l-.15,.17h-.17l-.17,.3v.37l-.48,.13v.3l-.24,.5-.04,.76c-.19,.27-.36,.72-.52,1.33-.16,.61-.32,1.06-.5,1.33-.27,.17-.55,.48-.84,.93-.33,.52-.58,.86-.76,1.02-.52,.12-1.31,.29-2.38,.52l-.54-.22-.76,.22-.82-.56-.37-.84,.17-.76,.5-.17c.45,.22,.81,.42,1.1,.6l.8-.13,.54-.35,.13-.93,.17-.13c-.01-.52,.04-.98,.17-1.38,.22-.4,.53-1.02,.93-1.86,.14-.69,.47-1.71,.97-3.05l-.13-.5,.13-.35-.3-.3-.5,.17v.13l-.65,.17-.45,.3c-.65,.1-1.2,.22-1.64,.37l-.8-.37-.17-.48,.17-.3c1.53,.03,3.14-.46,4.84-1.47h.35l1.06-.76,.54-.09,.48,.22c.63,.65,.9,1.18,.8,1.6l-.3,.17v.32l-.32,.48c.03,.12,0,.32-.09,.63l.09,.35,.32,.17c.55-.19,1.14-.51,1.77-.97v-.17h.17l.43-.3h.19l.48-.37,.17-.3,.63-.13v-.17c.43-.23,.81-.4,1.15-.5l.13-.17h.37c.43-.17,.76-.38,.97-.63h.48l.13,.32h.19c.24,.3,.45,.73,.6,1.27v.5Z"/><path class="b" d="M118.88,158.86c.03,.25-.07,.6-.3,1.08l-.3,.17-.17,.3h-.17l-.3,.35-.65,.13c-.04,.1-.14,.25-.28,.43-.14,.19-.24,.33-.28,.43l-.52,.39-.65,.17-.13,.17-.65,.13-.17,.17-.8-.3c-.65,.06-1.28-.06-1.9-.35v-.13c-.12-.17-.22-.29-.3-.35l-.3-.13c-.26-.46-.39-.92-.39-1.38l.22-.52c.23-.16,.62-.75,1.17-1.77,.36-.66,.72-1.33,1.08-2.01,.03-.35,.27-1.14,.73-2.38v-.3l.17-.17v-.17h.19l.35-.69-.04-.69-.17-.17c-.42,.04-.79,.2-1.1,.48v.17c-.58,.17-.99,.32-1.25,.43l-.35,.35c-.29,.04-.59,.14-.91,.3l-.35-.04-.3-.26-.09-.35,.09-.43c.5-.4,.92-.63,1.25-.69,.46-.09,.92-.17,1.38-.26,.19-.09,.46-.22,.82-.39,.85-.37,1.91-.56,3.18-.56,.03,0,.14,.02,.32,.06,.19,.04,.29,.06,.32,.06,.26,.26,.46,.58,.6,.95h.17c.12,.19,.17,.58,.17,1.17,0,.06-.04,.3-.13,.73-.1,.07-.33,.33-.69,.78l-.48,.17-.13,.48h-.17l-.3,.3c.04,.42-.01,.89-.17,1.43h-.13c-.06,.36-.17,.68-.35,.95l-.47,.43c-.35,1.11-.5,1.71-.47,1.79h-.13c-.03,.26-.1,.63-.22,1.12l.04,.52c.43-.03,1.03-.26,1.78-.7,.76-.44,1.21-.85,1.37-1.24l.52-.3,.39-.04,.35,.17Zm2.12-16.55l-.3,.26c-.09,.63-.3,1.07-.65,1.3v.43l-.35,.39-.17,.6-.56,.13c-.06,.45-.2,.81-.43,1.08-.32,.19-.6,.43-.86,.73l-.56,.17-.39-.91c.03-.32,.04-.79,.04-1.43,.39-.63,.49-1.3,.3-1.99,.2-.5,.46-.94,.78-1.3l.78-.3,.17-.17c.23-.12,.48-.17,.73-.17h.69c.32,.14,.58,.36,.78,.65v.52Z"/><path class="b" d="M136.94,151.62l-.13,.17v.8l-.17,.17-.35,.8,.13,.3-.17,.17c-.04,.33-.15,.79-.32,1.38l.09,.22c-.29,.39-.63,.97-1.02,1.75-.4,.85-.6,1.45-.6,1.79l-.32,.48,.09,.63c.63-.46,1.11-.91,1.43-1.36l.56-.24,.67,.17c-.06,.3-.32,.73-.8,1.3-.55,.65-.9,1.13-1.06,1.45l-.3,.19v.13l-1.06,.67c-.48-.04-1.02-.31-1.64-.8-.07-.13-.24-.3-.5-.5l-.22-.48v-.5l-.17-.3,.13-.37-.04-.48c0-.6,.31-1.46,.92-2.56,.61-1.1,.9-2.08,.85-2.93,.29-.52,.5-1.15,.63-1.9l-.45-.17-.17,.17v.13l-.97,.67v.17l-.63,.13v.17c-.48,.16-.8,.37-.97,.63v.35c-.19,.13-.57,.24-1.15,.32v.3h-.3l-.15,.17h-.17l-.17,.3v.37l-.48,.13v.3l-.24,.5-.04,.76c-.19,.27-.36,.72-.52,1.33-.16,.61-.32,1.06-.5,1.33-.27,.17-.55,.48-.84,.93-.33,.52-.58,.86-.76,1.02-.52,.12-1.31,.29-2.38,.52l-.54-.22-.76,.22-.82-.56-.37-.84,.17-.76,.5-.17c.45,.22,.81,.42,1.1,.6l.8-.13,.54-.35,.13-.93,.17-.13c-.01-.52,.04-.98,.17-1.38,.22-.4,.53-1.02,.93-1.86,.14-.69,.47-1.71,.97-3.05l-.13-.5,.13-.35-.3-.3-.5,.17v.13l-.65,.17-.45,.3c-.65,.1-1.2,.22-1.64,.37l-.8-.37-.17-.48,.17-.3c1.53,.03,3.14-.46,4.84-1.47h.35l1.06-.76,.54-.09,.48,.22c.63,.65,.9,1.18,.8,1.6l-.3,.17v.32l-.32,.48c.03,.12,0,.32-.09,.63l.09,.35,.32,.17c.55-.19,1.14-.51,1.77-.97v-.17h.17l.43-.3h.19l.48-.37,.17-.3,.63-.13v-.17c.43-.23,.81-.4,1.15-.5l.13-.17h.37c.43-.17,.76-.38,.97-.63h.48l.13,.32h.19c.24,.3,.45,.73,.6,1.27v.5Z"/><path class="b" d="M153.79,151.06l-.59,.6c-.11,.58-.11,1.05,0,1.43l-.63,.17-.3,.48h-.17v.3c-.09,.43-.3,1.07-.63,1.9v.6l-.17,.43v.39l-.39,.45c-.13,.42-.29,1.05-.48,1.9h-.13l-.17,.3h-.17l.09,.52c-.13,.27-.14,.52-.04,.73l-.61,.43c.06,.35,.09,.62,.09,.82,0,.29-.12,.68-.37,1.19-.25,.5-.38,.89-.41,1.15l-.56,.43v.43l.17,.13-.13,.22-.04,.26-.3,.17c-.22,.27-.38,.6-.48,.97-.23,.32-.61,.73-1.13,1.25l-.13,.65-.3,.43,.04,.39-.22,.43v.13h-.17c-.36,.48-.82,.85-1.38,1.12-.23,.36-.45,.62-.65,.78h-.17l-.13,.3c-.65,.27-1.19,.43-1.62,.48l-.3,.35h-.17v.13c-.26,.14-.62,.36-1.08,.65-1.79,.27-3.26,.37-4.41,.3-.06-.09-.17-.19-.35-.3-.43,.04-.9-.01-1.4-.17-.09-.09-.25-.19-.48-.3h-1.12l-.6-.48-.22-.43-.6-.3-.3-.39v-.6l.17-.3v-.35l.6-.95v-.13c.07-.04,.23-.3,.48-.78l.48-.35,.95-.13,.17-.17h1.1c.33,.07,.55,.13,.65,.17v-.17l.95,.17v.3h.13v.17h.17l.17,.13v.3l-.35,.17v.48l-.13,.17-.82,.13c-.35-.23-.6-.39-.78-.48h-.3l-.17-.3-1.58,.3-.17,.17v.17l-.3,.48c.27,.63,.37,1.09,.3,1.38h.3v.17l.48,.3c.49-.13,1.35,.09,2.57,.65,.69-.12,1.01-.17,.95-.17-.23,0,.23,.06,1.38,.17,.4-.13,.78-.35,1.12-.65v-.13c.59-.1,1.07-.37,1.43-.82l.48-.13v-.17l.61-.13c.17-.25,.68-1.2,1.51-2.85,.71-1.41,1.22-2.24,1.53-2.48,.13-.2,.23-.53,.3-.99,.33-.46,.58-.94,.73-1.45,.29-.85,.45-1.32,.48-1.4l.13-.13v-.17l.48-.17c.12-.36,.27-.62,.47-.78l.13-.6c.33-.48,.65-.86,.95-1.17l.09-.91,.17-.3h.13c-.09-.45,.04-1.02,.39-1.71l-.13-.39c.13-.26,.21-.67,.26-1.23,.06-.69,.1-1.12,.13-1.27l.47-.78c-.36-.29-.58-.55-.65-.78l-.78-.35c-.87,.22-1.5,.56-1.9,1.04l-.17,.78c-.39,.19-.75,.48-1.08,.86v.48h-.17l-.13,.78-.17,.17c-.12,.35-.22,.6-.3,.78l-.56,.43-.22,.52c-.07,.19-.13,.45-.17,.8l-.3,.17-.19,1.12,.19,.13h.91l.95-.48,.35-.48v-.13l.48-.48,.78-.35v-.13c.81-.13,1.22-.19,1.25-.19v.5l-.17,.17v.13l-.13,.17-.82,.48,.17,.3-.17,.17v.17l-.48,.13c-1.05,1.01-2.13,1.51-3.24,1.51-.22,0-.5-.03-.84-.09l-.56-.48-.56-.17-.65-.52c-.01-.2-.09-.67-.24-1.4-.09-.5-.11-1.07-.06-1.69,.13-.29,.29-.72,.48-1.3h.35v-.3h.3l.13-.3,.35-.17c.13-.39,.4-.76,.82-1.12l.09-.3c.14-.26,.63-.66,1.45-1.21,.82-.55,1.41-.88,1.77-.99,.95-.32,2.04-.48,3.29-.48,.13,0,.34,.04,.64,.13s.51,.13,.66,.13c.09,0,.23-.02,.43-.05,.2-.04,.36-.05,.48-.03l.47-.48,.8,.17,1.12-.17,.13,.17v.48Z"/></g><g><path class="b" d="M168.23,160.87l.1-1.29c.02-.26,.03-.52,.05-.77l.25-6.3c0-.46,0-.85,0-1.18,.13,0,.25,0,.37,0s.24,0,.36,0l-.1,1.98c.2-.38,.39-.69,.56-.91s.4-.43,.69-.63c.29-.2,.61-.36,.98-.47,.37-.11,.75-.17,1.15-.17,.34,0,.67,.04,.97,.13,.31,.09,.57,.2,.79,.33,.22,.13,.4,.28,.54,.44,.14,.16,.26,.33,.33,.51,.08,.18,.16,.42,.23,.73,.13-.25,.25-.46,.36-.64,.11-.18,.27-.36,.46-.55,.19-.19,.42-.35,.69-.5,.26-.14,.56-.25,.88-.34,.32-.08,.66-.12,1-.12,.52,0,1.02,.09,1.49,.27,.47,.18,.83,.47,1.08,.86,.26,.4,.38,.87,.38,1.43,0,.31-.02,.78-.07,1.4s-.09,1.52-.15,2.67c-.05,1.16-.08,2.19-.09,3.1-.16,0-.29,0-.38,0s-.21,0-.38,0c.06-.77,.11-1.7,.17-2.78l.14-2.6c.04-.65,.06-1.18,.06-1.61,0-.22,0-.41-.03-.57-.02-.16-.06-.32-.13-.47s-.16-.3-.29-.44c-.13-.14-.28-.26-.46-.36-.18-.1-.4-.19-.65-.25-.25-.06-.52-.09-.8-.09-.41,0-.79,.06-1.13,.19-.35,.13-.66,.3-.94,.53s-.51,.5-.68,.82c-.18,.32-.33,.75-.44,1.31-.1,.47-.17,1.32-.21,2.53l-.11,3.78c-.16,0-.29,0-.38,0s-.21,0-.38,0c.06-.86,.11-1.71,.14-2.53l.11-2.38c.04-.76,.06-1.38,.06-1.88,0-.47-.04-.83-.13-1.08-.09-.25-.23-.47-.43-.67-.2-.2-.45-.35-.75-.46-.3-.11-.63-.17-.99-.17-.39,0-.76,.06-1.12,.19-.36,.13-.67,.31-.95,.55-.28,.24-.51,.53-.7,.87-.19,.34-.35,.8-.47,1.37-.1,.49-.18,1.37-.24,2.63-.06,1.39-.09,2.58-.09,3.55-.16,0-.29,0-.38,0s-.21,0-.38,0Z"/><path class="b" d="M191.42,159.94c-.05,.24-.09,.48-.11,.72-.52,.15-.99,.26-1.41,.32s-.84,.09-1.28,.09c-.76,0-1.43-.1-2.01-.31s-1.08-.54-1.5-1.02-.71-1.01-.89-1.6-.26-1.22-.26-1.89c0-.88,.15-1.69,.45-2.46,.3-.76,.8-1.4,1.49-1.9,.69-.5,1.55-.76,2.58-.76,.71,0,1.35,.13,1.92,.39,.57,.26,1.02,.69,1.34,1.28,.32,.59,.48,1.29,.48,2.11,0,.15,0,.3-.02,.44h-7.49c-.03,.42-.05,.73-.05,.93,0,.6,.09,1.18,.26,1.74,.18,.56,.44,1.03,.8,1.41s.78,.66,1.28,.84c.5,.18,1.03,.27,1.58,.27,.85,0,1.79-.2,2.82-.6Zm-6.62-5.1h6.73c0-.43-.03-.76-.08-.99-.04-.23-.13-.47-.25-.72s-.26-.46-.43-.64-.36-.33-.59-.45c-.22-.12-.47-.22-.75-.28-.28-.06-.57-.09-.87-.09-.33,0-.66,.04-.98,.11s-.62,.18-.88,.31c-.27,.13-.51,.3-.74,.51-.23,.21-.42,.43-.57,.67-.15,.24-.26,.47-.34,.69-.08,.22-.16,.52-.25,.89Z"/><path class="b" d="M194.56,152.33c.04-.21,.08-.46,.1-.74,.64-.18,1.2-.3,1.67-.36,.47-.07,.95-.1,1.44-.1,.56,0,1.08,.05,1.56,.15s.88,.26,1.18,.49,.51,.49,.6,.79c.1,.3,.15,.6,.15,.91s-.01,.71-.03,1.2c-.02,.48-.05,1-.09,1.56s-.07,1.25-.1,2.07-.05,1.43-.05,1.79v.79c-.16,0-.3,0-.4,0-.11,0-.24,0-.4,0,.09-.96,.15-1.75,.18-2.34,.04-.6,.06-1.24,.08-1.93,.02-.69,.05-1.33,.09-1.93-.2,.16-.34,.28-.45,.36-.1,.08-.22,.15-.34,.21s-.27,.13-.44,.19c-.17,.07-.33,.12-.48,.17-.14,.05-.5,.15-1.05,.3s-.96,.26-1.2,.34c-.54,.18-.96,.34-1.26,.5-.32,.17-.59,.36-.8,.57-.19,.18-.33,.37-.42,.58-.1,.24-.15,.49-.15,.76,0,.41,.12,.76,.37,1.07s.56,.51,.93,.64c.38,.12,.83,.18,1.36,.18,.26,0,.52-.01,.77-.04s.48-.07,.7-.11c.22-.05,.53-.14,.94-.27-.06,.24-.1,.48-.14,.72-.51,.1-.92,.17-1.24,.19-.32,.03-.62,.04-.9,.04-.53,0-1.02-.04-1.46-.12-.45-.08-.82-.24-1.12-.48-.3-.24-.53-.52-.67-.83-.14-.31-.22-.65-.22-.99,0-.26,.04-.52,.13-.77,.09-.25,.22-.49,.41-.71,.15-.19,.35-.37,.6-.53,.3-.2,.62-.37,.98-.51,.42-.16,.86-.31,1.34-.45,.13-.04,.65-.17,1.56-.41,.41-.11,.8-.24,1.16-.4,.37-.16,.65-.38,.85-.67,.2-.29,.3-.58,.3-.87,0-.21-.05-.42-.14-.62-.09-.2-.26-.39-.5-.56-.24-.18-.54-.3-.9-.37-.36-.07-.74-.1-1.13-.1-.46,0-.89,.03-1.29,.09-.4,.06-.74,.13-1.02,.21-.28,.08-.63,.2-1.05,.37Z"/><path class="b" d="M203.06,160.68c-.01-.3-.04-.57-.08-.8,.5,.22,.97,.38,1.41,.46,.44,.09,.84,.13,1.21,.13,.49,0,.9-.07,1.24-.21,.34-.14,.6-.34,.78-.61,.18-.27,.26-.55,.26-.85,0-.13-.01-.26-.04-.38s-.07-.25-.14-.37c-.06-.12-.13-.24-.21-.34-.08-.1-.19-.22-.33-.35-.14-.13-.31-.28-.5-.44-.19-.16-.49-.41-.89-.75s-.74-.62-1-.86c-.26-.24-.48-.49-.65-.74-.17-.25-.3-.48-.37-.68s-.11-.42-.11-.63c0-.36,.12-.72,.35-1.06,.23-.34,.56-.61,.99-.79s.98-.27,1.64-.27c.55,0,1.18,.07,1.87,.22,0,.28,.02,.54,.06,.8-.4-.17-.76-.29-1.08-.34-.32-.06-.64-.09-.97-.09-.41,0-.79,.06-1.13,.18-.35,.12-.61,.3-.78,.54-.17,.24-.26,.49-.26,.77,0,.15,.02,.29,.06,.42,.04,.13,.1,.27,.18,.4s.19,.27,.32,.42c.13,.14,.3,.31,.5,.49,.2,.19,.5,.44,.89,.76s.68,.57,.87,.74c.19,.17,.35,.32,.49,.46,.14,.14,.26,.29,.39,.46s.22,.33,.3,.49c.08,.16,.13,.32,.17,.48,.04,.16,.06,.32,.06,.49,0,.4-.12,.77-.35,1.12s-.57,.63-1.02,.83c-.44,.2-.98,.3-1.6,.3-.23,0-.52-.02-.87-.06s-.63-.08-.84-.12c-.21-.04-.48-.11-.8-.2Z"/><path class="b" d="M218.92,160.87c-.13,0-.24,0-.35,0s-.22,0-.35,0l.08-2.05c-.15,.32-.26,.55-.35,.69-.09,.14-.21,.29-.35,.45-.15,.16-.33,.31-.54,.45-.22,.14-.47,.26-.77,.36-.3,.1-.6,.17-.91,.22-.31,.04-.63,.07-.94,.07-.54,0-1.05-.06-1.52-.18s-.89-.33-1.25-.62-.61-.64-.74-1.04c-.13-.39-.2-.84-.2-1.34,0-.38,.04-1.33,.13-2.85s.13-2.75,.13-3.71c.16,0,.29,0,.37,0s.21,0,.37,0c-.05,.54-.12,1.67-.22,3.37-.1,1.71-.15,2.78-.15,3.2,0,.48,.06,.89,.19,1.22s.35,.61,.66,.83c.31,.22,.67,.37,1.06,.46,.39,.09,.8,.13,1.21,.13s.85-.05,1.25-.17,.73-.25,1-.41c.26-.16,.5-.37,.7-.6,.23-.28,.43-.6,.6-.96,.15-.32,.25-.72,.32-1.2,.07-.48,.13-1.34,.18-2.59,.04-1.2,.07-2.29,.07-3.29,.17,0,.3,0,.38,0s.21,0,.37,0l-.35,6.62-.04,1.43c-.01,.59-.02,1.09-.02,1.5Z"/><path class="b" d="M221.59,160.87c.08-1.33,.15-2.89,.22-4.69s.1-3.13,.1-4.01v-.85c.12,0,.23,0,.34,0,.11,0,.23,0,.35,0l-.08,1.79c.21-.43,.41-.75,.6-.97s.4-.4,.64-.55c.24-.15,.53-.26,.85-.34,.33-.08,.66-.12,1.02-.12,.26,0,.52,.03,.78,.09,0,.21,.01,.43,.04,.64-.42-.11-.79-.16-1.1-.16s-.58,.04-.82,.12c-.24,.08-.47,.2-.68,.36-.21,.16-.42,.37-.62,.65-.2,.27-.35,.57-.45,.87-.13,.36-.21,.8-.26,1.31-.07,.81-.11,1.73-.13,2.76-.02,1.39-.04,2.42-.04,3.09-.17,0-.29,0-.38,0s-.22,0-.38,0Z"/><path class="b" d="M234.88,159.94c-.05,.24-.09,.48-.11,.72-.52,.15-.99,.26-1.41,.32s-.84,.09-1.28,.09c-.76,0-1.43-.1-2.01-.31s-1.08-.54-1.5-1.02-.71-1.01-.89-1.6-.26-1.22-.26-1.89c0-.88,.15-1.69,.45-2.46,.3-.76,.8-1.4,1.49-1.9,.69-.5,1.55-.76,2.58-.76,.71,0,1.35,.13,1.92,.39,.57,.26,1.02,.69,1.34,1.28,.32,.59,.48,1.29,.48,2.11,0,.15,0,.3-.02,.44h-7.49c-.03,.42-.05,.73-.05,.93,0,.6,.09,1.18,.26,1.74,.18,.56,.44,1.03,.8,1.41s.78,.66,1.28,.84c.5,.18,1.03,.27,1.58,.27,.85,0,1.79-.2,2.82-.6Zm-6.62-5.1h6.73c0-.43-.03-.76-.08-.99-.04-.23-.13-.47-.25-.72s-.26-.46-.43-.64-.36-.33-.59-.45c-.22-.12-.47-.22-.75-.28-.28-.06-.57-.09-.87-.09-.33,0-.66,.04-.98,.11s-.62,.18-.88,.31c-.27,.13-.51,.3-.74,.51-.23,.21-.42,.43-.57,.67-.15,.24-.26,.47-.34,.69-.08,.22-.16,.52-.25,.89Z"/><path class="b" d="M237.43,160.87l.1-1.29c.02-.26,.03-.52,.05-.77l.25-6.3c0-.46,0-.85,0-1.18,.13,0,.25,0,.37,0s.24,0,.36,0l-.1,1.98c.2-.38,.39-.69,.56-.91s.4-.43,.69-.63c.29-.2,.61-.36,.98-.47,.37-.11,.75-.17,1.15-.17,.34,0,.67,.04,.97,.13,.31,.09,.57,.2,.79,.33,.22,.13,.4,.28,.54,.44,.14,.16,.26,.33,.33,.51,.08,.18,.16,.42,.23,.73,.13-.25,.25-.46,.36-.64,.11-.18,.27-.36,.46-.55,.19-.19,.42-.35,.69-.5,.26-.14,.56-.25,.88-.34,.32-.08,.66-.12,1-.12,.52,0,1.02,.09,1.49,.27,.47,.18,.83,.47,1.08,.86,.26,.4,.38,.87,.38,1.43,0,.31-.02,.78-.07,1.4s-.09,1.52-.15,2.67c-.05,1.16-.08,2.19-.09,3.1-.16,0-.29,0-.38,0s-.21,0-.38,0c.06-.77,.11-1.7,.17-2.78l.14-2.6c.04-.65,.06-1.18,.06-1.61,0-.22,0-.41-.03-.57-.02-.16-.06-.32-.13-.47s-.16-.3-.29-.44c-.13-.14-.28-.26-.46-.36-.18-.1-.4-.19-.65-.25-.25-.06-.52-.09-.8-.09-.41,0-.79,.06-1.13,.19-.35,.13-.66,.3-.94,.53s-.51,.5-.68,.82c-.18,.32-.33,.75-.44,1.31-.1,.47-.17,1.32-.21,2.53l-.11,3.78c-.16,0-.29,0-.38,0s-.21,0-.38,0c.06-.86,.11-1.71,.14-2.53l.11-2.38c.04-.76,.06-1.38,.06-1.88,0-.47-.04-.83-.13-1.08-.09-.25-.23-.47-.43-.67-.2-.2-.45-.35-.75-.46-.3-.11-.63-.17-.99-.17-.39,0-.76,.06-1.12,.19-.36,.13-.67,.31-.95,.55-.28,.24-.51,.53-.7,.87-.19,.34-.35,.8-.47,1.37-.1,.49-.18,1.37-.24,2.63-.06,1.39-.09,2.58-.09,3.55-.16,0-.29,0-.38,0s-.21,0-.38,0Z"/><path class="b" d="M260.62,159.94c-.05,.24-.09,.48-.11,.72-.52,.15-.99,.26-1.41,.32s-.84,.09-1.28,.09c-.76,0-1.43-.1-2.01-.31s-1.08-.54-1.5-1.02-.71-1.01-.89-1.6-.26-1.22-.26-1.89c0-.88,.15-1.69,.45-2.46,.3-.76,.8-1.4,1.49-1.9,.69-.5,1.55-.76,2.58-.76,.71,0,1.35,.13,1.92,.39,.57,.26,1.02,.69,1.34,1.28,.32,.59,.48,1.29,.48,2.11,0,.15,0,.3-.02,.44h-7.49c-.03,.42-.05,.73-.05,.93,0,.6,.09,1.18,.26,1.74,.18,.56,.44,1.03,.8,1.41s.78,.66,1.28,.84c.5,.18,1.03,.27,1.58,.27,.85,0,1.79-.2,2.82-.6Zm-6.62-5.1h6.73c0-.43-.03-.76-.08-.99-.04-.23-.13-.47-.25-.72s-.26-.46-.43-.64-.36-.33-.59-.45c-.22-.12-.47-.22-.75-.28-.28-.06-.57-.09-.87-.09-.33,0-.66,.04-.98,.11s-.62,.18-.88,.31c-.27,.13-.51,.3-.74,.51-.23,.21-.42,.43-.57,.67-.15,.24-.26,.47-.34,.69-.08,.22-.16,.52-.25,.89Z"/><path class="b" d="M263.17,160.87l.32-5.77,.08-2.71c.01-.49,.02-.84,.02-1.06,.16,0,.29,0,.37,0,.08,0,.2,0,.36,0l-.13,2.15c.14-.3,.25-.52,.34-.68,.09-.15,.22-.32,.37-.5,.16-.18,.34-.34,.56-.5s.48-.28,.79-.39,.62-.18,.94-.23c.32-.05,.64-.07,.96-.07,.53,0,1.04,.06,1.54,.18,.5,.12,.91,.33,1.24,.62s.55,.63,.68,1.01c.12,.38,.18,.79,.18,1.22,0,.2,0,.49-.03,.87l-.2,4.3-.04,1.54c-.13,0-.25,0-.37,0s-.24,0-.36,0c.06-.79,.11-1.54,.15-2.26l.13-2.42c.05-.89,.07-1.54,.07-1.94s-.06-.79-.18-1.12c-.12-.33-.33-.6-.62-.82s-.64-.37-1.04-.47c-.4-.1-.82-.15-1.25-.15-.6,0-1.13,.08-1.59,.25-.43,.16-.82,.39-1.14,.69-.33,.31-.6,.69-.8,1.16-.16,.34-.28,.82-.36,1.43-.08,.53-.14,1.39-.18,2.59-.05,1.2-.07,2.22-.07,3.05-.16,0-.29,0-.38,0s-.21,0-.38,0Z"/><path class="b" d="M278.1,160.28c-.05,.19-.09,.39-.11,.6-.51,.13-.98,.19-1.41,.19-.36,0-.68-.04-.96-.12s-.51-.22-.69-.43c-.18-.2-.29-.43-.35-.68-.06-.25-.08-.52-.08-.8,0-.05,0-.13,0-.24,0-.11,.01-.34,.03-.71l.32-6.26h-1.17c.03-.17,.04-.34,.05-.51h1.15c.03-.4,.06-.99,.08-1.78,.24-.03,.45-.07,.62-.12-.04,1.02-.07,1.65-.07,1.9h2.84c-.03,.17-.04,.34-.05,.51h-2.82l-.31,6.48v.39c0,.53,.05,.91,.17,1.15s.3,.41,.52,.52c.22,.11,.46,.16,.7,.16,.17,0,.35-.01,.54-.04,.19-.03,.52-.1,.99-.21Z"/><path class="b" d="M288.8,151.13c.59,0,1.15,.08,1.7,.25s1.03,.44,1.45,.84c.42,.39,.74,.91,.96,1.55s.33,1.31,.33,2.02c0,.77-.12,1.51-.35,2.21-.23,.71-.56,1.3-.99,1.77-.43,.48-.93,.81-1.51,1.01-.58,.2-1.19,.29-1.84,.29-.45,0-.9-.05-1.34-.16-.44-.1-.85-.28-1.23-.52-.38-.25-.71-.56-1-.95-.29-.39-.5-.85-.65-1.39-.15-.54-.22-1.09-.22-1.67,0-1.01,.19-1.94,.57-2.78s.94-1.46,1.7-1.86,1.56-.6,2.42-.6Zm-.02,.53c-.75,0-1.45,.18-2.09,.55-.64,.37-1.12,.92-1.42,1.67-.3,.75-.45,1.57-.45,2.46,0,.63,.09,1.22,.26,1.77,.17,.55,.45,1.02,.84,1.4,.38,.38,.8,.65,1.24,.79,.44,.15,.91,.22,1.4,.22,.56,0,1.09-.09,1.58-.27,.49-.18,.92-.49,1.3-.92,.38-.43,.65-.95,.83-1.58,.18-.62,.26-1.28,.26-1.98,0-.65-.09-1.26-.26-1.83-.17-.57-.44-1.03-.81-1.37-.37-.34-.78-.58-1.25-.72-.47-.14-.95-.21-1.44-.21Z"/><path class="b" d="M295.48,160.87l.17-3.35,.17-5.67h-1.2c.03-.17,.04-.35,.05-.53h1.17c.03-.91,.06-1.45,.08-1.61,.04-.33,.09-.6,.17-.79,.08-.19,.17-.36,.29-.5s.28-.27,.48-.38c.2-.12,.43-.21,.7-.27,.27-.06,.57-.09,.92-.09,.2,0,.41,.01,.62,.04,.21,.03,.5,.08,.87,.15,.01,.19,.04,.41,.08,.65-.59-.21-1.13-.31-1.62-.31-.27,0-.51,.04-.73,.11-.22,.07-.39,.16-.52,.26-.13,.1-.24,.23-.34,.39-.09,.16-.16,.33-.2,.52s-.08,.47-.09,.84c0,.08,0,.41-.02,.99h2.81c-.03,.16-.04,.34-.05,.53h-2.79l-.22,9.02c-.16,0-.3,0-.4,0-.09,0-.22,0-.39,0Z"/><path class="b" d="M170.73,184.1l-.44-1.31-3.03-8.23c.16,0,.29,0,.39,0s.22,0,.39,0l.38,1.16,1.48,4.16,1.03,2.77c.09,.23,.22,.55,.39,.96l.91-2.31,2.51-6.75c.16,0,.3,0,.44,0s.29,0,.45,0l2.52,9.06c1.59-3.45,2.91-6.47,3.96-9.06,.17,0,.3,0,.39,0s.21,0,.38,0l-3.67,8.12-.6,1.43c-.22,0-.39,0-.52,0s-.31,0-.53,0l-.45-1.77-1.67-6.11c-.06-.19-.16-.52-.31-.99l-.31,.76-2.74,7.39c-.04,.09-.12,.33-.24,.72-.22,0-.4,0-.54,0-.15,0-.33,0-.54,0Z"/><path class="b" d="M190.98,183.17c-.05,.24-.09,.48-.11,.72-.52,.15-.99,.26-1.41,.32s-.84,.09-1.28,.09c-.76,0-1.43-.1-2.01-.31s-1.08-.54-1.5-1.02-.71-1.01-.89-1.6-.26-1.22-.26-1.89c0-.88,.15-1.69,.45-2.46,.3-.76,.8-1.4,1.49-1.9,.69-.5,1.55-.76,2.58-.76,.71,0,1.35,.13,1.92,.39,.57,.26,1.02,.69,1.34,1.28,.32,.59,.48,1.29,.48,2.11,0,.15,0,.3-.02,.44h-7.49c-.03,.42-.05,.73-.05,.93,0,.6,.09,1.18,.26,1.74,.18,.56,.44,1.03,.8,1.41s.78,.66,1.28,.84c.5,.18,1.03,.27,1.58,.27,.85,0,1.79-.2,2.82-.6Zm-6.62-5.1h6.73c0-.43-.03-.76-.08-.99-.04-.23-.13-.47-.25-.72s-.26-.46-.43-.64-.36-.33-.59-.45c-.22-.12-.47-.22-.75-.28-.28-.06-.57-.09-.87-.09-.33,0-.66,.04-.98,.11s-.62,.18-.88,.31c-.27,.13-.51,.3-.74,.51-.23,.21-.42,.43-.57,.67-.15,.24-.26,.47-.34,.69-.08,.22-.16,.52-.25,.89Z"/><path class="b" d="M193.64,184.1l.07-.94,.27-7.79,.1-4.18c.16,0,.3,0,.4,0s.24,0,.41,0c-.07,.71-.12,1.42-.14,2.12l-.07,1.47c.69-.18,1.28-.29,1.75-.35,.47-.06,.94-.08,1.4-.08,.8,0,1.5,.1,2.1,.3,.6,.2,1.09,.53,1.48,.99,.39,.46,.66,.98,.82,1.55,.16,.57,.24,1.16,.24,1.79,0,.7-.09,1.38-.28,2.04-.19,.66-.48,1.25-.88,1.78-.4,.53-.88,.91-1.45,1.14s-1.19,.35-1.88,.35c-.4,0-.78-.05-1.14-.14-.36-.09-.68-.22-.96-.39-.27-.16-.5-.34-.69-.54-.18-.2-.33-.4-.43-.6-.11-.2-.22-.47-.33-.81l-.02,2.29c-.16,0-.29,0-.38,0-.09,0-.21,0-.37,0Zm1.02-8.64c-.05,1.28-.08,2.11-.11,2.5s-.04,.83-.04,1.35c0,.67,.05,1.27,.15,1.79,.1,.52,.3,.99,.59,1.4s.67,.72,1.13,.94c.46,.22,.98,.33,1.54,.33s1.1-.11,1.59-.33c.49-.22,.9-.56,1.23-1.02,.33-.47,.58-1.01,.75-1.64,.17-.63,.26-1.25,.26-1.87,0-.88-.17-1.64-.51-2.26-.34-.63-.79-1.08-1.35-1.35s-1.23-.41-1.99-.41c-.47,0-.95,.04-1.46,.12-.5,.08-1.1,.23-1.78,.45Z"/><path class="b" d="M209.18,188.29l.11-1.91,.3-8.56,.06-2.87c.82-.22,1.54-.38,2.15-.46,.61-.09,1.21-.13,1.79-.13,.92,0,1.72,.16,2.39,.47,.67,.31,1.19,.85,1.57,1.6,.37,.76,.56,1.62,.56,2.58,0,1.02-.2,1.96-.59,2.81-.39,.85-.93,1.48-1.6,1.88-.67,.4-1.42,.6-2.25,.6-.37,0-.74-.04-1.1-.12-.36-.08-.69-.21-.99-.37-.3-.17-.55-.37-.77-.61-.21-.24-.46-.62-.73-1.14l-.15,5v.32c0,.21,0,.52,0,.92-.16,0-.29,0-.39,0s-.22,0-.39,0Zm1.21-12.75c-.05,.54-.1,1.3-.14,2.3-.04,1-.06,1.65-.06,1.98,0,.55,.06,1.06,.17,1.53s.34,.9,.68,1.29c.34,.39,.74,.68,1.21,.87,.46,.2,.95,.29,1.44,.29,.71,0,1.35-.19,1.92-.58,.57-.38,1.01-.95,1.32-1.71,.31-.75,.47-1.57,.47-2.46s-.16-1.66-.48-2.31c-.32-.65-.76-1.12-1.31-1.41-.55-.29-1.18-.44-1.88-.44-1.05,0-2.17,.22-3.34,.65Z"/><path class="b" d="M220.13,184.1c.08-1.33,.15-2.89,.22-4.69s.1-3.13,.1-4.01v-.85c.12,0,.23,0,.34,0,.11,0,.23,0,.35,0l-.08,1.79c.21-.43,.41-.75,.6-.97s.4-.4,.64-.55c.24-.15,.53-.26,.85-.34,.33-.08,.66-.12,1.02-.12,.26,0,.52,.03,.78,.09,0,.21,.01,.43,.04,.64-.42-.11-.79-.16-1.1-.16s-.58,.04-.82,.12c-.24,.08-.47,.2-.68,.36-.21,.16-.42,.37-.62,.65-.2,.27-.35,.57-.45,.87-.13,.36-.21,.8-.26,1.31-.07,.81-.11,1.73-.13,2.76-.02,1.39-.04,2.42-.04,3.09-.17,0-.29,0-.38,0s-.22,0-.38,0Z"/><path class="b" d="M230.65,174.36c.59,0,1.15,.08,1.7,.25s1.03,.44,1.45,.84c.42,.39,.74,.91,.96,1.55s.33,1.31,.33,2.02c0,.77-.12,1.51-.35,2.21-.23,.71-.56,1.3-.99,1.77-.43,.48-.93,.81-1.51,1.01-.58,.2-1.19,.29-1.84,.29-.45,0-.9-.05-1.34-.16-.44-.1-.85-.28-1.23-.52-.38-.25-.71-.56-1-.95-.29-.39-.5-.85-.65-1.39-.15-.54-.22-1.09-.22-1.67,0-1.01,.19-1.94,.57-2.78s.94-1.46,1.7-1.86,1.56-.6,2.42-.6Zm-.02,.53c-.75,0-1.45,.18-2.09,.55-.64,.37-1.12,.92-1.42,1.67-.3,.75-.45,1.57-.45,2.46,0,.63,.09,1.22,.26,1.77,.17,.55,.45,1.02,.84,1.4,.38,.38,.8,.65,1.24,.79,.44,.15,.91,.22,1.4,.22,.56,0,1.09-.09,1.58-.27,.49-.18,.92-.49,1.3-.92,.38-.43,.65-.95,.83-1.58,.18-.62,.26-1.28,.26-1.98,0-.65-.09-1.26-.26-1.83-.17-.57-.44-1.03-.81-1.37-.37-.34-.78-.58-1.25-.72-.47-.14-.95-.21-1.44-.21Z"/><path class="b" d="M236.98,188.29l.11-1.91,.3-8.56,.06-2.87c.82-.22,1.54-.38,2.15-.46,.61-.09,1.21-.13,1.79-.13,.92,0,1.72,.16,2.39,.47,.67,.31,1.19,.85,1.57,1.6,.37,.76,.56,1.62,.56,2.58,0,1.02-.2,1.96-.59,2.81-.39,.85-.93,1.48-1.6,1.88-.67,.4-1.42,.6-2.25,.6-.37,0-.74-.04-1.1-.12-.36-.08-.69-.21-.99-.37-.3-.17-.55-.37-.77-.61-.21-.24-.46-.62-.73-1.14l-.15,5v.32c0,.21,0,.52,0,.92-.16,0-.29,0-.39,0s-.22,0-.39,0Zm1.21-12.75c-.05,.54-.1,1.3-.14,2.3-.04,1-.06,1.65-.06,1.98,0,.55,.06,1.06,.17,1.53s.34,.9,.68,1.29c.34,.39,.74,.68,1.21,.87,.46,.2,.95,.29,1.44,.29,.71,0,1.35-.19,1.92-.58,.57-.38,1.01-.95,1.32-1.71,.31-.75,.47-1.57,.47-2.46s-.16-1.66-.48-2.31c-.32-.65-.76-1.12-1.31-1.41-.55-.29-1.18-.44-1.88-.44-1.05,0-2.17,.22-3.34,.65Z"/><path class="b" d="M255.14,183.17c-.05,.24-.09,.48-.11,.72-.52,.15-.99,.26-1.41,.32s-.84,.09-1.28,.09c-.76,0-1.43-.1-2.01-.31s-1.08-.54-1.5-1.02-.71-1.01-.89-1.6-.26-1.22-.26-1.89c0-.88,.15-1.69,.45-2.46,.3-.76,.8-1.4,1.49-1.9,.69-.5,1.55-.76,2.58-.76,.71,0,1.35,.13,1.92,.39,.57,.26,1.02,.69,1.34,1.28,.32,.59,.48,1.29,.48,2.11,0,.15,0,.3-.02,.44h-7.49c-.03,.42-.05,.73-.05,.93,0,.6,.09,1.18,.26,1.74,.18,.56,.44,1.03,.8,1.41s.78,.66,1.28,.84c.5,.18,1.03,.27,1.58,.27,.85,0,1.79-.2,2.82-.6Zm-6.62-5.1h6.73c0-.43-.03-.76-.08-.99-.04-.23-.13-.47-.25-.72s-.26-.46-.43-.64-.36-.33-.59-.45c-.22-.12-.47-.22-.75-.28-.28-.06-.57-.09-.87-.09-.33,0-.66,.04-.98,.11s-.62,.18-.88,.31c-.27,.13-.51,.3-.74,.51-.23,.21-.42,.43-.57,.67-.15,.24-.26,.47-.34,.69-.08,.22-.16,.52-.25,.89Z"/><path class="b" d="M257.69,184.1c.08-1.33,.15-2.89,.22-4.69s.1-3.13,.1-4.01v-.85c.12,0,.23,0,.34,0,.11,0,.23,0,.35,0l-.08,1.79c.21-.43,.41-.75,.6-.97s.4-.4,.64-.55c.24-.15,.53-.26,.85-.34,.33-.08,.66-.12,1.02-.12,.26,0,.52,.03,.78,.09,0,.21,.01,.43,.04,.64-.42-.11-.79-.16-1.1-.16s-.58,.04-.82,.12c-.24,.08-.47,.2-.68,.36-.21,.16-.42,.37-.62,.65-.2,.27-.35,.57-.45,.87-.13,.36-.21,.8-.26,1.31-.07,.81-.11,1.73-.13,2.76-.02,1.39-.04,2.42-.04,3.09-.17,0-.29,0-.38,0s-.22,0-.38,0Z"/><path class="b" d="M267.68,183.51c-.05,.19-.09,.39-.11,.6-.51,.13-.98,.19-1.41,.19-.36,0-.68-.04-.96-.12s-.51-.22-.69-.43c-.18-.2-.29-.43-.35-.68-.06-.25-.08-.52-.08-.8,0-.05,0-.13,0-.24,0-.11,.01-.34,.03-.71l.32-6.26h-1.17c.03-.17,.04-.34,.05-.51h1.15c.03-.4,.06-.99,.08-1.78,.24-.03,.45-.07,.62-.12-.04,1.02-.07,1.65-.07,1.9h2.84c-.03,.17-.04,.34-.05,.51h-2.82l-.31,6.48v.39c0,.53,.05,.91,.17,1.15s.3,.41,.52,.52c.22,.11,.46,.16,.7,.16,.17,0,.35-.01,.54-.04,.19-.03,.52-.1,.99-.21Z"/><path class="b" d="M269.24,184.1c.07-.95,.15-2.59,.25-4.94,.09-2.35,.14-3.88,.14-4.6,.16,0,.29,0,.37,0,.09,0,.22,0,.38,0-.09,1.2-.17,2.83-.26,4.9-.08,2.07-.13,3.62-.13,4.65-.16,0-.29,0-.38,0s-.21,0-.38,0Zm.35-11.97l.03-.94c.16,0,.32,0,.48,0s.32,0,.48,0l-.03,.94c-.16-.01-.32-.02-.48-.02s-.32,0-.48,.02Z"/><path class="b" d="M279.92,183.17c-.05,.24-.09,.48-.11,.72-.52,.15-.99,.26-1.41,.32s-.84,.09-1.28,.09c-.76,0-1.43-.1-2.01-.31s-1.08-.54-1.5-1.02-.71-1.01-.89-1.6-.26-1.22-.26-1.89c0-.88,.15-1.69,.45-2.46,.3-.76,.8-1.4,1.49-1.9,.69-.5,1.55-.76,2.58-.76,.71,0,1.35,.13,1.92,.39,.57,.26,1.02,.69,1.34,1.28,.32,.59,.48,1.29,.48,2.11,0,.15,0,.3-.02,.44h-7.49c-.03,.42-.05,.73-.05,.93,0,.6,.09,1.18,.26,1.74,.18,.56,.44,1.03,.8,1.41s.78,.66,1.28,.84c.5,.18,1.03,.27,1.58,.27,.85,0,1.79-.2,2.82-.6Zm-6.62-5.1h6.73c0-.43-.03-.76-.08-.99-.04-.23-.13-.47-.25-.72s-.26-.46-.43-.64-.36-.33-.59-.45c-.22-.12-.47-.22-.75-.28-.28-.06-.57-.09-.87-.09-.33,0-.66,.04-.98,.11s-.62,.18-.88,.31c-.27,.13-.51,.3-.74,.51-.23,.21-.42,.43-.57,.67-.15,.24-.26,.47-.34,.69-.08,.22-.16,.52-.25,.89Z"/><path class="b" d="M281.9,183.91c-.01-.3-.04-.57-.08-.8,.5,.22,.97,.38,1.41,.46,.44,.09,.84,.13,1.21,.13,.49,0,.9-.07,1.24-.21,.34-.14,.6-.34,.78-.61,.18-.27,.26-.55,.26-.85,0-.13-.01-.26-.04-.38s-.07-.25-.14-.37c-.06-.12-.13-.24-.21-.34-.08-.1-.19-.22-.33-.35-.14-.13-.31-.28-.5-.44-.19-.16-.49-.41-.89-.75s-.74-.62-1-.86c-.26-.24-.48-.49-.65-.74-.17-.25-.3-.48-.37-.68s-.11-.42-.11-.63c0-.36,.12-.72,.35-1.06,.23-.34,.56-.61,.99-.79s.98-.27,1.64-.27c.55,0,1.18,.07,1.87,.22,0,.28,.02,.54,.06,.8-.4-.17-.76-.29-1.08-.34-.32-.06-.64-.09-.97-.09-.41,0-.79,.06-1.13,.18-.35,.12-.61,.3-.78,.54-.17,.24-.26,.49-.26,.77,0,.15,.02,.29,.06,.42,.04,.13,.1,.27,.18,.4s.19,.27,.32,.42c.13,.14,.3,.31,.5,.49,.2,.19,.5,.44,.89,.76s.68,.57,.87,.74c.19,.17,.35,.32,.49,.46,.14,.14,.26,.29,.39,.46s.22,.33,.3,.49c.08,.16,.13,.32,.17,.48,.04,.16,.06,.32,.06,.49,0,.4-.12,.77-.35,1.12s-.57,.63-1.02,.83c-.44,.2-.98,.3-1.6,.3-.23,0-.52-.02-.87-.06s-.63-.08-.84-.12c-.21-.04-.48-.11-.8-.2Z"/></g></svg>