<svg id="Layer_1" data-name="Layer 1" xmlns="http://www.w3.org/2000/svg" viewBox="0 0 177 187.25"><defs><style>.cls-1{fill:#c4ced6;}.cls-2{fill:#1a3966;}</style></defs><ellipse class="cls-1" cx="88.5" cy="131.5" rx="88.5" ry="15.5"/><path class="cls-1" d="M211,540.5V574s52,45,171,7l6-40.5" transform="translate(-211 -409)"/><path class="cls-2" d="M326.3,514.6c0-13-7.8-18.8-25.2-25.6l-7.6-3c-20.4-8-34.4-19.6-34.4-40,0-23,19.4-37,44.8-37a53,53,0,0,1,32.6,10.6l-1.2,26h-12l-5.6-30.2,12.8,6.6v10c-9.8-9.6-17.2-13-27.8-13-15.6,0-27.4,7.8-27.4,22.8,0,12.6,8.2,20,22.8,25.6l7.8,3c26.4,10.2,36.6,21.8,36.6,40.6,0,23.6-19.8,38-47.2,38-15,0-29.6-4.8-38.8-10.6l1.2-28h12l5.2,30.8-13-5.6V526c12.4,9,19.2,13,32.8,13C313.7,539,326.3,530.2,326.3,514.6Z" transform="translate(-211 -409)"/></svg>