<svg id="Layer_1" data-name="Layer 1" xmlns="http://www.w3.org/2000/svg" viewBox="0 0 288.62 152.5"><defs><style>.cls-1{fill:#231f20;}</style></defs><path class="cls-1" d="M26.55,32.64a30.23,30.23,0,0,1-9.94,1.78c-4.9,0-8.93-1.25-12.1-4.27C1.73,27.46,0,23.14,0,18.1.05,8.45,6.67,1.39,17.52,1.39a20.07,20.07,0,0,1,8.07,1.49l-1,3.41A16.75,16.75,0,0,0,17.43,4.9c-7.88,0-13,4.89-13,13S9.36,31,16.9,31a13.67,13.67,0,0,0,5.57-.86V20.45H15.89V17.09H26.55Z"/><path class="cls-1" d="M54.05,22.27c0,8.6-5.95,12.34-11.57,12.34-6.29,0-11.14-4.61-11.14-11.95,0-7.78,5.09-12.34,11.52-12.34C49.54,10.32,54.05,15.17,54.05,22.27Zm-18.43.24c0,5.09,2.92,8.93,7.05,8.93s7.06-3.79,7.06-9c0-3.94-2-8.93-7-8.93S35.62,18.1,35.62,22.51Z"/><path class="cls-1" d="M80.4,22.27c0,8.6-6,12.34-11.57,12.34-6.29,0-11.14-4.61-11.14-11.95,0-7.78,5.09-12.34,11.53-12.34C75.89,10.32,80.4,15.17,80.4,22.27ZM62,22.51c0,5.09,2.93,8.93,7,8.93s7.06-3.79,7.06-9c0-3.94-2-8.93-7-8.93S62,18.1,62,22.51Z"/><path class="cls-1" d="M105.79,0V28.08c0,2.07,0,4.42.19,6h-3.79l-.19-4h-.1A8.58,8.58,0,0,1,94,34.61c-5.61,0-9.93-4.75-9.93-11.81,0-7.73,4.75-12.48,10.41-12.48,3.56,0,6,1.68,7,3.55h.1V0Zm-4.22,20.31a7.7,7.7,0,0,0-.19-1.78,6.22,6.22,0,0,0-6.1-4.9c-4.37,0-7,3.84-7,9,0,4.7,2.3,8.59,6.86,8.59a6.35,6.35,0,0,0,6.2-5,7.48,7.48,0,0,0,.19-1.82Z"/><path class="cls-1" d="M150.38,19.87c-.24-4.51-.52-9.93-.48-14h-.14c-1.1,3.8-2.45,7.83-4.08,12.29L140,33.89H136.8l-5.23-15.41c-1.54-4.56-2.84-8.73-3.75-12.58h-.09c-.1,4-.34,9.46-.63,14.31l-.86,13.87h-4l2.26-32.35h5.33l5.52,15.65c1.34,4,2.45,7.53,3.26,10.89h.15c.81-3.26,2-6.81,3.41-10.89l5.76-15.65h5.32l2,32.35H151.2Z"/><path class="cls-1" d="M182.88,22.27c0,8.6-5.95,12.34-11.57,12.34-6.29,0-11.14-4.61-11.14-11.95,0-7.78,5.09-12.34,11.52-12.34C178.37,10.32,182.88,15.17,182.88,22.27Zm-18.43.24c0,5.09,2.92,8.93,7.05,8.93s7.06-3.79,7.06-9c0-3.94-2-8.93-7-8.93S164.45,18.1,164.45,22.51Z"/><path class="cls-1" d="M188.21,18.1c0-2.74-.05-5.09-.2-7.25h3.7l.14,4.56h.2a7,7,0,0,1,6.43-5.09,4.88,4.88,0,0,1,1.2.14v4a6.16,6.16,0,0,0-1.44-.14c-3,0-5.09,2.25-5.67,5.42a12.66,12.66,0,0,0-.19,2V34.08h-4.17Z"/><path class="cls-1" d="M204.09,17.14c0-2.4-.05-4.37-.19-6.29h3.75l.24,3.84H208a8.54,8.54,0,0,1,7.68-4.37c3.22,0,8.21,1.92,8.21,9.89V34.08h-4.22V20.69c0-3.74-1.4-6.86-5.38-6.86a6.16,6.16,0,0,0-6,6.28v14h-4.23Z"/><path class="cls-1" d="M235.44,4.32a2.62,2.62,0,0,1-5.24,0,2.58,2.58,0,0,1,2.64-2.64A2.51,2.51,0,0,1,235.44,4.32Zm-4.71,29.76V10.85H235V34.08Z"/><path class="cls-1" d="M242,17.14c0-2.4,0-4.37-.19-6.29h3.75l.24,3.84h.09a8.54,8.54,0,0,1,7.68-4.37c3.22,0,8.21,1.92,8.21,9.89V34.08h-4.22V20.69c0-3.74-1.39-6.86-5.38-6.86a6,6,0,0,0-5.66,4.32,5.78,5.78,0,0,0-.29,2v14H242Z"/><path class="cls-1" d="M288.62,10.85c-.09,1.68-.19,3.55-.19,6.38V30.72c0,5.33-1.06,8.6-3.31,10.61s-5.52,2.79-8.45,2.79a15.09,15.09,0,0,1-7.73-1.92L270,39a13.06,13.06,0,0,0,6.81,1.82c4.32,0,7.49-2.25,7.49-8.11V30.1h-.09a8.31,8.31,0,0,1-7.4,3.89c-5.76,0-9.89-4.9-9.89-11.33,0-7.87,5.14-12.34,10.47-12.34a7.73,7.73,0,0,1,7.25,4h.09l.2-3.5ZM284.25,20A5.78,5.78,0,0,0,284,18.1a6.08,6.08,0,0,0-5.9-4.47c-4,0-6.91,3.41-6.91,8.79,0,4.56,2.3,8.35,6.86,8.35a6.18,6.18,0,0,0,5.86-4.32,7.37,7.37,0,0,0,.33-2.26Z"/><path class="cls-1" d="M20.5,79.68V71.23H10.18v2.36c0,.24-.2.48-.58.67-1.63.38-1.82.43-1.82-.77V52l2.11,1.49H33.6l1.25-1.34,2.21,1.44a.53.53,0,0,1,.29.48.91.91,0,0,1-.77.81c-.34.1-.58.34-.58.58V73.83a.77.77,0,0,1-.48.72c-1.53.38-1.87.43-1.87-.72v-2.6H22.9v8.45H37.73l3-2.49,3.07,2.3a.74.74,0,0,1,.38.72,1,1,0,0,1-1.1,1H22.9V95c0,.67-1.78.86-1.83.86-.38,0-.57-.29-.57-.86V81.17H.72L.34,79.68ZM10.18,54.91v6.58H33.65V54.91Zm0,8.07v6.77H33.65V63Z"/><path class="cls-1" d="M84.82,77.47l3-2.54,2.88,2.16a1.32,1.32,0,0,1,.52.91.92.92,0,0,1-1,.91H72.53a27.31,27.31,0,0,0,3.26,5.38L77.28,86l3.12-2,2.5-2.3.34-.48,2.11,1.15a.81.81,0,0,1,.48.63.59.59,0,0,1-.63.57c-.09,0-.43-.09-.52-.09a.62.62,0,0,0-.29.09l-3.12,1.92-3.12,1.35c2.93,2.49,6.43,4.46,12.86,4.89a.33.33,0,0,1,.34.29c0,.19-.39.38-1,.53A1.74,1.74,0,0,0,89,93.8c-.2.62-.39,1-.63,1h-.05c-10.89-2.6-15.21-11.24-16.8-15.85H64.71V90.05A48.1,48.1,0,0,0,73,86.83a1.57,1.57,0,0,1,.34-.09c.33,0,.48.38.48.57a.46.46,0,0,1-.29.39,46.64,46.64,0,0,1-14.69,6,1,1,0,0,0-.38.81.9.9,0,0,1-.72.92c-.39,0-.72-.34-1-1.11l-.87-3.12h2.4l4-.72V78.91h-7c-.2,3.8-1.06,8.93-3.08,12.15-1.34,2.11-3.12,4.37-3.79,4.37-.24,0-.33-.29-.33-.43a.38.38,0,0,1,.14-.29c2.74-3.65,4.9-8.21,4.9-21.22V66.24l2.2,1.63H83.91l2.93-2.49,2.92,2.11a1.39,1.39,0,0,1,.53,1,.91.91,0,0,1-1,.91H55.54v4.13l-.1,4Zm-4.51-25,1.25-1.29,2.2,1.44a.5.5,0,0,1,.29.48.9.9,0,0,1-.77.76c-.38.1-.62.34-.62.58V66a.78.78,0,0,1-.43.72c-1.54.39-1.92.48-1.92-.72V64.27H60.05c0,1.49,0,1.63-.58,1.92-1.58.39-1.82.43-1.82-.72V51.26l1.82,1.25ZM78.77,73l3.07-2.54,3,2.3a.85.85,0,0,1,.38.72,1,1,0,0,1-1,1H59.62L59.23,73ZM60.05,54v3.79H80.31V54Zm0,5.28v3.6H80.31v-3.6Z"/><path class="cls-1" d="M23.23,116.78c2.26.15,3.75.58,3.75,1.64,0,.52-.43.86-1.15,1.29-1.68,1-5.72,2.16-9.56,2.93-.14,2.74-.48,9-.48,11.14,5.28-3.12,10.28-4.8,14.36-4.8,6.77,0,11.52,3.41,11.52,10.08,0,6-5.09,9.94-10.8,9.94s-8.5-2.93-8.5-6.29A14.05,14.05,0,0,1,23.52,137l1,.15a14.42,14.42,0,0,0-.58,3.74c0,3.79,2.4,5.67,6.63,5.67,5,0,8.16-3.37,8.16-7.88,0-5.71-3.79-8.16-8.88-8.16-4.27,0-8.59,1.59-14,4.95,0,8,.77,9.5.77,12.43,0,1.78-.72,3.31-2.35,3.31-1.2,0-.91-1.77-1.78-3.65-.53-1.25-3.26-3.89-5.66-5.76-.72.63-1.59,1.78-2.4,1.78a2.48,2.48,0,0,1-2.36-2.26c0-1,.34-1.87,1.11-1.87.43,0,1,.1,1.49.1,1.44,0,5.42-2.5,9-4.71.1-3.93.29-9,.39-11.86a33.62,33.62,0,0,1-4.76.49c-2.35,0-4.41-.29-5.71-3.27l.67-.81c1.2,1.48,2.31,2.11,3.6,2.11a27.88,27.88,0,0,0,6.29-.68c.1-1.39.15-4.32.15-5.56,0-2.16-.92-2.93-3.12-2.69l-.25-.34a3.35,3.35,0,0,1,2.65-1.44c2.06,0,4.36,1.35,4.36,3.22,0,.48-.57,1.25-.76,1.77a25.1,25.1,0,0,0-.63,4.52c3.55-.63,6.34-2,6.39-3.36Zm-9.4,27.37c0-2.16-.1-4.85-.1-7.35a39.68,39.68,0,0,0-6.15,4.47c2.45,1.58,4.81,3.79,5.53,3.79C13.54,145.06,13.83,144.82,13.83,144.15Zm15.55-23.33a11.23,11.23,0,0,1,7.68-2.74c3.22,0,6.1,2.35,6.1,4.9,0,.81-.29,1.58-1.25,1.58S41,124,40,124a22,22,0,0,0-5.19,1.59l-.38-.77c.24-.1,5-2.45,5-2.79,0-.76-1.73-2-3.7-2a9.83,9.83,0,0,0-5.61,1.54Z"/><path class="cls-1" d="M52.61,113.52a2.69,2.69,0,0,1,1.82-.77c1.68,0,4.32,2.16,4.32,4.37,0,1-.67,1.39-1,2.16a41.14,41.14,0,0,0-4.32,18.34c0,3.17.72,5.61,1.44,5.61S59.09,136,60.53,133l1.06.43c-2.21,5.38-4.76,11.33-4.76,12.34,0,.86.44,1.49.44,2.74,0,.86-.39,1.67-1.06,1.67-1.87,0-4.85-4.27-4.85-12.24a66.55,66.55,0,0,1,2.54-16,20.91,20.91,0,0,0,1-5.14c0-1.53-.38-2.83-2.2-3.07ZM73.87,113a2.46,2.46,0,0,1,2.55-1.63c2,0,4.56,1.29,4.61,2.64a3.81,3.81,0,0,1-.72,1.73,13.88,13.88,0,0,0-.34,3.84c0,1.2-.14,2.4-.19,3.55,3.79-.67,5-1,5.52-2.5,2.45.15,4.13.48,4.13,1.59s-1.2,1.34-3.55,2a57.84,57.84,0,0,1-6.1,1c0,1.87.1,3.51.1,4.8a49.4,49.4,0,0,0,.86,9.84,23.25,23.25,0,0,1,7.3,4.52,3.63,3.63,0,0,1,1.53,2.83,1.36,1.36,0,0,1-1.29,1.34c-.44,0-1.11-.48-1.83-1.39a19,19,0,0,0-5.52-4.66c0,.82,0,2.07,0,2.74,0,3.36-2.45,5.23-7.15,5.23-5.76,0-9.22-2.64-9.22-6.24s3.7-5.71,8.78-5.71a19.22,19.22,0,0,1,4.76.57,64,64,0,0,1-.48-7.53c0-1.25-.15-3.55-.2-6a44.91,44.91,0,0,1-6.19.48A8.19,8.19,0,0,1,65,123.36l.53-.82a8.18,8.18,0,0,0,5.38,1.64,38.73,38.73,0,0,0,6.57-.58V120c0-5.52-.14-6.77-2.59-6.77a5.51,5.51,0,0,0-.86,0Zm4.47,28.32a12.35,12.35,0,0,0-5-1.15c-3.94,0-7,1.44-7,4s2.83,3.94,7,3.94c3.7,0,5-1.3,5-4.66C78.39,142.9,78.39,142.23,78.34,141.36Z"/><path class="cls-1" d="M111.94,113.14a2.73,2.73,0,0,1,2.73-2.07c2.93,0,5,1.83,5,3.27,0,1-.76,1.44-1,3a47,47,0,0,0-.28,5.23c4.51.19,11-1.24,11.28-2.78,3,.09,4.41.62,4.41,1.68s-1.72,1.39-4.94,2.06a46.89,46.89,0,0,1-7.92,1,11.26,11.26,0,0,1-2.83-.57c0,2.49.24,5.08.38,7.73.1,1.68.53,4.46.77,7,6.29,1.39,11.9,4.22,14.21,6a4.48,4.48,0,0,1,1.73,2.93,1.34,1.34,0,0,1-1.49,1.39,2.54,2.54,0,0,1-1.92-.87,30.36,30.36,0,0,0-12.39-7.1,23.06,23.06,0,0,1,.19,3.12c0,4.17-2.3,6.72-9.26,6.72-6,0-10.08-2.83-10.08-6.67s4.8-6.39,11.09-6.39a39.82,39.82,0,0,1,5.37.43c-.67-8-1.15-14.11-1.15-21.21,0-2.64-.09-3.89-3-3.89a2.58,2.58,0,0,0-.92.14Zm5.28,27.17a22.32,22.32,0,0,0-6-.92c-5,0-8.55,1.59-8.55,4.56s2.69,4.57,7.78,4.57c4.85,0,6.91-1.16,6.91-5.05C117.36,142.42,117.31,141.36,117.22,140.31Z"/><path class="cls-1" d="M154.51,124.51a3.06,3.06,0,0,0-.62,1.68c0,1,.77,1.54,1.92,1.54,2.4,0,8-4.22,13.92-4.22,7.1,0,8.5,4.94,8.5,10.6,0,8-6.29,15.37-18.68,18.39l-.62-1.1c10.9-3.61,16.13-10.71,16.13-17.33,0-4.8-.63-8.93-5.52-8.93-3.31,0-6.87,1.87-10.32,4.37-1.3.91-2,2-3.36,2a4.46,4.46,0,0,1-4-4.08,4.68,4.68,0,0,1,1.92-3.31Zm12.2-10.32c-6.44,0-8.26-1.15-9.8-3.89l.82-.76c1,1.39,2.4,2.25,6.72,2.25,1.49,0,3-.09,4.18-.09,3,0,5.23,1.2,5.23,2.83,0,1.15-2,1.15-3.46,1.29-1.29.15-4.89,1.59-8.49,3.27l-.63-1c2.11-1.2,6.29-3.31,6.67-3.55.15-.1.2-.2.2-.24s-.15-.15-.34-.15Z"/></svg>