<svg id="Layer_1" data-name="Layer 1" xmlns="http://www.w3.org/2000/svg" viewBox="0 0 407.25 182.03"><defs><style>.cls-1,.cls-2,.cls-3{fill:#0d0e1f;}.cls-1,.cls-3{stroke:#0d0e1f;stroke-miterlimit:10;}.cls-3{stroke-width:4px;}</style></defs><path class="cls-1" d="M133.19,245.61l.08-.82c.68,0,1.7,0,3.08,0,2.44,0,4.84-.05,7.2-.17l.24.71a9.75,9.75,0,0,0-2.71.58,2.25,2.25,0,0,0-1,1q-.65,1.22-.65,10.11c0,2,0,3.83.09,5.38a24.71,24.71,0,0,0,.34,3.62,5.55,5.55,0,0,0,3.47,4.32,14.18,14.18,0,0,0,5.15,1.07,16.59,16.59,0,0,0,3.26-.39,11.13,11.13,0,0,0,3.59-1.4,5,5,0,0,0,2.29-2.75q1.18-3.45,1.18-13.54a41.79,41.79,0,0,0-.18-4.53,5.8,5.8,0,0,0-.59-2.2,1.7,1.7,0,0,0-1-.83,9.26,9.26,0,0,0-2-.15l-.09-.75a14.2,14.2,0,0,1,2.16-.16c3.09,0,5.16,0,6.23.05v.88a6,6,0,0,0-2,.32,1.2,1.2,0,0,0-.67.93,23.74,23.74,0,0,0-.16,2.85c0,2.71-.11,5.12-.19,7.22s-.2,3.84-.33,5.2a29.76,29.76,0,0,1-.55,3.63,10.19,10.19,0,0,1-.87,2.58,6.74,6.74,0,0,1-3.08,2.85,14.63,14.63,0,0,1-4.22,1.32,26.84,26.84,0,0,1-3.88.31,16,16,0,0,1-5.37-.87,8.66,8.66,0,0,1-4-2.89,8.3,8.3,0,0,1-1.56-5.21c0-.52,0-1.93.06-4.24s.05-4,.05-5.17a33.83,33.83,0,0,0-.58-7.92.85.85,0,0,0-.51-.62A16,16,0,0,0,133.19,245.61Z" transform="translate(-117.77 -243.06)"/><path class="cls-1" d="M168,245.37v-.88l2.47.16c.36,0,.79,0,1.28,0l1.85,0q1.29,1.63,3,3.47t3.91,3.93c1.44,1.4,2.26,2.19,2.44,2.38l12.72,12.07q.17-2.7.17-8.17v-4.16c0-2.21-.06-3.88-.16-5a6.5,6.5,0,0,0-.62-2.47,2.21,2.21,0,0,0-1.18-1.07,15.22,15.22,0,0,0-2.46-.55l.24-.6a8,8,0,0,1,1.05,0l1.34,0c.44,0,1,.06,1.57.11.36,0,.73.05,1.12.05h.95l2.74-.05,0,.74a4.24,4.24,0,0,0-1.85.6,2.25,2.25,0,0,0-.8,1.36,45.91,45.91,0,0,0-.55,6.91c-.11,3.44-.16,6.7-.16,9.81q0,1.83,0,3.51c0,1.12.05,2.12.08,3s.07,1.72.13,2.48l-.89,0q-1.49-3.21-9-10.17l-8.08-7.54c-.27-.2-.94-.8-2-1.79l-4-3.73-.28,13.2a34.59,34.59,0,0,0,.17,5.69,2.85,2.85,0,0,0,1.23,2.15,14,14,0,0,0,3.6,1,3.37,3.37,0,0,1-.09.82l-2.07-.09c-1.17-.06-1.89-.09-2.13-.09l-2.37.09-.93.06-1.5.11a.69.69,0,0,1-.45-.12.51.51,0,0,1-.14-.4c0-.21,0-.34.11-.38a1.27,1.27,0,0,1,.48-.11,3.7,3.7,0,0,0,1.36-.35,1.65,1.65,0,0,0,.68-.9,7.93,7.93,0,0,0,.38-2.12c.08-1,.13-2.22.14-3.74l.15-10.28a45.35,45.35,0,0,0-.13-5,5,5,0,0,0-1-2.65A3.87,3.87,0,0,0,168,245.37Z" transform="translate(-117.77 -243.06)"/><path class="cls-1" d="M205.52,245.42v-.93l3,.17c1.46.06,2.45.09,2.95.09l2.24-.09,3.73-.17v1a10.5,10.5,0,0,0-2.59.21,1.65,1.65,0,0,0-1,.81q-.71,1.35-.71,10.37,0,6.21,0,7.86c0,1.1,0,2.27.07,3.52a9,9,0,0,0,.24,2.14,1.54,1.54,0,0,0,1.06.94,9,9,0,0,0,2.78.33l-.09.82-1.2,0-1.85-.06-1.47,0h-2.77l-1.69,0-1.91.06-1,0-.05-.82a9.15,9.15,0,0,0,3.15-.54,2.18,2.18,0,0,0,1.12-1.31,16.46,16.46,0,0,0,.55-4.4q.12-3.24.12-6.84c0-2.17-.08-5.28-.22-9.34a8.39,8.39,0,0,0-.33-2.4,1.87,1.87,0,0,0-1.21-1.07A9.28,9.28,0,0,0,205.52,245.42Z" transform="translate(-117.77 -243.06)"/><path class="cls-1" d="M222.19,245.18l.11-.78,1.74,0,3.54.13.9,0h1.23l2.15.05,0,.69a16,16,0,0,0-2.34.25.53.53,0,0,0-.44.54,11,11,0,0,0,.89,2.82q.9,2.25,2.2,5.17l1.89,4.21,3,6.48.6,1.23c.41.83.7,1.45.89,1.85.49-.86,1.07-2,1.74-3.35s1.31-2.69,1.9-4,.93-2,1-2.11l2.82-6.19c.42-.9.83-1.89,1.24-3a7.6,7.6,0,0,0,.62-2.29q0-1.42-2.37-1.62l.12-.88c1.66.14,3.35.21,5.09.21l1.23,0h1.35v.6a7.54,7.54,0,0,0-2.13,1,6.08,6.08,0,0,0-1.42,1.75c-.47.81-1.29,2.37-2.44,4.7l-4.84,9.65c-.91,1.78-1.82,3.74-2.72,5.86a21.22,21.22,0,0,0-1.56,4.74l-.67.09a27.64,27.64,0,0,0-1.1-2.7L235,267.11c-.44-1.15-1.05-2.51-1.81-4.09l-3.62-7.65q-4-8.34-4.81-9.22a2.45,2.45,0,0,0-1.05-.74A5.65,5.65,0,0,0,222.19,245.18Z" transform="translate(-117.77 -243.06)"/><path class="cls-1" d="M280,266.1h.66a32.21,32.21,0,0,1-.75,3.72,16.57,16.57,0,0,1-1.05,2.81c-.48,0-1.13-.08-1.94-.1s-2,0-3.45,0c-.89,0-1.85,0-2.87,0l-1.31,0c-.94,0-2,0-3.27,0s-2.74.06-4.49.11-3,.11-3.85.16l0-.74,1.37-.33a2.57,2.57,0,0,0,.94-.4,1.14,1.14,0,0,0,.36-.53,6.76,6.76,0,0,0,.21-1.13c.09-.54.17-1.53.25-3s.15-3,.2-4.82.07-2.89.05-3.34l-.15-6.85a36.87,36.87,0,0,0-.25-4.31,2.15,2.15,0,0,0-.7-1.48,5.45,5.45,0,0,0-2-.65,3.94,3.94,0,0,1,0-.56h13.82q2.33,0,7-.17c-.07,1.23-.2,2.47-.39,3.7s-.42,1.86-.71,1.86-.54-.11-.54-.33,0-.36.09-.82.08-.72.08-.79c0-1-.62-1.72-1.88-2a21,21,0,0,0-4.51-.43,54.81,54.81,0,0,0-6.62.43,57.18,57.18,0,0,0-.39,6c0,1.07,0,2.29,0,3.67s0,2,0,1.94c.34,0,1.4,0,3.16,0q4.57,0,6.27-.17a5.58,5.58,0,0,0,1.31-.26,1.55,1.55,0,0,0,.63-.77,11.78,11.78,0,0,0,.67-1.88l.63,0c0,1.49,0,2.83,0,4s0,2.53,0,4.05h-.75a5.65,5.65,0,0,0-.59-2.76,2.83,2.83,0,0,0-2-1,45,45,0,0,0-5.37-.22,27.24,27.24,0,0,0-3.87.22l-.09,3.06a45.62,45.62,0,0,0,.39,8.64l.92.24c.36.08.7.15,1,.2s.79.1,1.39.15,1.36.08,2.26.08a22.35,22.35,0,0,0,5.31-.5,5.93,5.93,0,0,0,2.94-1.59A9,9,0,0,0,280,266.1Z" transform="translate(-117.77 -243.06)"/><path class="cls-1" d="M298.9,262.8l-2.48-3.53a32.37,32.37,0,0,1-4.72-.28l0,5.17c0,1.09,0,2.31.1,3.66a9.45,9.45,0,0,0,.44,2.87,1.19,1.19,0,0,0,.59.73,11.11,11.11,0,0,0,1.89.61c.31.07.47.18.47.34,0,.32-.1.47-.3.47s-.84-.07-1.81-.21c-1.24-.12-2-.17-2.26-.17a32.11,32.11,0,0,0-4.31.3,1.8,1.8,0,0,0-.37,0c-.29,0-.43-.13-.43-.39a.35.35,0,0,1,.16-.32,3.06,3.06,0,0,1,.72-.26,2.57,2.57,0,0,0,1.4-.78,4.4,4.4,0,0,0,.63-2.07,45.83,45.83,0,0,0,.21-5v-9.52q0-3.49,0-5.13a9,9,0,0,0-.35-2.4,1.72,1.72,0,0,0-.87-1,6.94,6.94,0,0,0-1.83-.4l.09-.72c.76,0,1.73,0,2.91,0,.34,0,1.59-.09,3.76-.27s3.53-.27,4.1-.27a12.56,12.56,0,0,1,4.07.62,9.33,9.33,0,0,1,3,1.66,7,7,0,0,1,1.84,2.36,6.3,6.3,0,0,1,.63,2.73,6.48,6.48,0,0,1-.65,2.8,7.41,7.41,0,0,1-2,2.47,11.49,11.49,0,0,1-3.38,1.88l1,1.47c1.35,2,2.48,3.68,3.37,4.94a41.68,41.68,0,0,0,2.88,3.63,16.56,16.56,0,0,0,3.14,2.83,6.49,6.49,0,0,0,3.13,1.22c.27.05.41.19.41.43a.31.31,0,0,1-.2.29,2.51,2.51,0,0,1-.93.1,9.29,9.29,0,0,1-4-.91,15.77,15.77,0,0,1-3.69-2.47,26.26,26.26,0,0,1-3.1-3.26Q300.75,265.44,298.9,262.8Zm-7.07-5.06a15.21,15.21,0,0,0,3.49.35,17.12,17.12,0,0,0,2.19-.16,9.18,9.18,0,0,0,2.37-.66,5.1,5.1,0,0,0,2.1-1.74,5.54,5.54,0,0,0,.88-3.3,7.11,7.11,0,0,0-.76-3.06,7.18,7.18,0,0,0-2.36-2.75,6.43,6.43,0,0,0-3.88-1.15,10.93,10.93,0,0,0-2.14.24c-.8.17-1.26.43-1.39.79Q291.84,247.35,291.83,257.74Z" transform="translate(-117.77 -243.06)"/><path class="cls-1" d="M320.44,272.5l-.89,0a24.92,24.92,0,0,0-1.18-7.2,4.55,4.55,0,0,1,.69-.17c.34,1.08.61,1.85.8,2.34a4.87,4.87,0,0,0,.76,1.27,4.32,4.32,0,0,0,1.28,1,20.07,20.07,0,0,0,3.23,1.31,12.92,12.92,0,0,0,3.95.58,8.3,8.3,0,0,0,3.67-.9c1.23-.61,1.84-1.93,1.84-4a6.12,6.12,0,0,0-.54-2.67,5,5,0,0,0-1.41-1.81,10.44,10.44,0,0,0-2-1.23c-.77-.36-1.77-.77-3-1.23a26,26,0,0,1-4.19-1.89,8.19,8.19,0,0,1-2.62-2.39,6.08,6.08,0,0,1-1-3.47,7,7,0,0,1,2.4-5.42c1.59-1.44,3.87-2.17,6.83-2.17a20.93,20.93,0,0,1,4.46.48,9,9,0,0,0,1.09.17,2.29,2.29,0,0,0,1.3-.43l.17-.09a1.37,1.37,0,0,1,.43.09l-.12,1c0,.32-.07.68-.11,1.07s-.06.69-.07.9,0,.36,0,.43c.18,1.74.27,2.69.25,2.85l-.64,0a5.27,5.27,0,0,0-1.45-3.46,6.53,6.53,0,0,0-2.86-1.71,11.23,11.23,0,0,0-3.06-.45c-2.39,0-4,.62-4.73,1.86a6.73,6.73,0,0,0-1.15,3.52,4.67,4.67,0,0,0,.86,2.9,6.13,6.13,0,0,0,2.14,1.81c.86.43,2.06.95,3.61,1.55a36.58,36.58,0,0,1,4.22,1.91,8.89,8.89,0,0,1,2.85,2.52,6.59,6.59,0,0,1,1.25,4.09,6.7,6.7,0,0,1-1.08,3.73,7.33,7.33,0,0,1-3.23,2.63,13,13,0,0,1-5.28,1,24.18,24.18,0,0,1-6.31-.89,5.66,5.66,0,0,0-.71-.12C320.49,271.75,320.35,272,320.44,272.5Z" transform="translate(-117.77 -243.06)"/><path class="cls-1" d="M342.6,245.42v-.93l3,.17c1.46.06,2.45.09,2.95.09l2.24-.09,3.73-.17v1a10.44,10.44,0,0,0-2.59.21,1.65,1.65,0,0,0-1,.81c-.48.9-.71,4.36-.71,10.37q0,6.21,0,7.86c0,1.1,0,2.27.07,3.52a9,9,0,0,0,.24,2.14,1.54,1.54,0,0,0,1.05.94,9.09,9.09,0,0,0,2.78.33l-.08.82-1.2,0-1.85-.06-1.48,0H347l-1.69,0-1.9.06-1,0,0-.82a9.15,9.15,0,0,0,3.15-.54,2.18,2.18,0,0,0,1.12-1.31,16.89,16.89,0,0,0,.55-4.4q.1-3.24.11-6.84,0-3.25-.21-9.34a8.31,8.31,0,0,0-.34-2.4,1.85,1.85,0,0,0-1.2-1.07A9.32,9.32,0,0,0,342.6,245.42Z" transform="translate(-117.77 -243.06)"/><path class="cls-1" d="M360.11,249.25l-.74-.17q1-2.7,1.82-5.13a4.45,4.45,0,0,0,.78.61,2.78,2.78,0,0,0,.93.23c.92.12,3,.17,6.26.17h10.9l2.63,0,2.54,0a3.92,3.92,0,0,0,1.21-.12,1.82,1.82,0,0,0,.64-.51,1.93,1.93,0,0,0,.56.54,27.17,27.17,0,0,0-1.18,4.42l-.93.13c.07-.48.13-1.12.17-1.94a4.53,4.53,0,0,0-1.94-.83,20.74,20.74,0,0,0-4.28-.31q-2.16,0-2.85,0a1.79,1.79,0,0,0-.86.17.89.89,0,0,0-.21.62l-.13,2.89c0,.46-.05,1.72-.13,3.79,0,.52,0,1.93-.05,4.24s0,4.31,0,6c0,2.16,0,3.67.07,4.54a5.91,5.91,0,0,0,.36,2,1.54,1.54,0,0,0,.92.9,11.24,11.24,0,0,0,2.1.41c.64.06,1,.15,1,.28a1.47,1.47,0,0,1-.05.5,6.35,6.35,0,0,1-.84,0c-.87-.06-1.64-.1-2.3-.13-1-.08-1.74-.13-2.33-.13a30,30,0,0,0-4.59.39c-.92.16-1.42.24-1.51.24a.61.61,0,0,1-.46-.15,1.86,1.86,0,0,1-.29-.56c.19-.06.63-.18,1.34-.35a15.3,15.3,0,0,0,2.16-.62,1.45,1.45,0,0,0,.83-.69,3.47,3.47,0,0,0,.17-1.29,19.08,19.08,0,0,1,.18-2.44c0,.09,0-.77,0-2.56s0-3.07.06-3.83,0-1.65,0-2.7c0-3.08,0-5.27,0-6.6s-.07-2.34-.14-3.07a6.83,6.83,0,0,0-.34-1.71c-1.24-.11-2.59-.17-4.07-.17a32.94,32.94,0,0,0-3.61.15,6.29,6.29,0,0,0-2,.5,2.55,2.55,0,0,0-1,.77A12.58,12.58,0,0,0,360.11,249.25Z" transform="translate(-117.77 -243.06)"/><path class="cls-1" d="M392,245.5l-.13-.75H394l2.32.09.85,0c.4,0,.94,0,1.61,0l2.44-.08,1,0-.11.82a18.8,18.8,0,0,0-2,.26c-.36.09-.54.29-.54.59a9.34,9.34,0,0,0,1.6,2.79q1.61,2.31,3.71,5.06t3,3.8c.43-.59,1.08-1.52,1.94-2.78l1.64-2.46a36.69,36.69,0,0,0,1.93-3.16A6.88,6.88,0,0,0,414.4,247q0-1.56-2.91-1.41l.08-.82,1.81.09,1.42,0,1.41,0,2.11,0,2.11,0,0,.88a6,6,0,0,0-2.31.49,6.82,6.82,0,0,0-2,1.79q-1.14,1.38-3.12,4.38L410.56,256l-2.26,3.53.08,7c0,1.72,0,2.87.08,3.44a2,2,0,0,0,.35,1.13,2.68,2.68,0,0,0,1.13.49c.48.1,1.25.3,2.28.58l0,.57c.11,0-.43-.05-1.62-.13l-1.34-.09a14,14,0,0,0-1.4-.09h-.92q-.33,0-2.61.18a26.21,26.21,0,0,1-2.65.21v-.69a4.41,4.41,0,0,0,3-.88,1.6,1.6,0,0,0,.48-.82,13.19,13.19,0,0,0,.18-2.31c0-1.19.06-3.09.06-5.71,0-1.43,0-2.32-.05-2.65l-1.76-2.6c-.88-1.25-1.71-2.41-2.5-3.47s-1.43-1.88-1.92-2.44q-2.31-2.91-3.3-4a5.86,5.86,0,0,0-1.7-1.38A6.43,6.43,0,0,0,392,245.5Z" transform="translate(-117.77 -243.06)"/><path class="cls-1" d="M437,258.52a13.4,13.4,0,0,1,2.07-7.24,15.17,15.17,0,0,1,5.53-5.26,14.71,14.71,0,0,1,7.31-1.94,13.76,13.76,0,0,1,5.19,1,15.07,15.07,0,0,1,4.59,2.9,13.61,13.61,0,0,1,3.23,4.56,14.5,14.5,0,0,1-6,18.4,15.15,15.15,0,0,1-7.73,2,13.43,13.43,0,0,1-6-1.29,13.82,13.82,0,0,1-4.51-3.49,15.59,15.59,0,0,1-2.78-4.71A14.34,14.34,0,0,1,437,258.52Zm3.21-1.64a15.08,15.08,0,0,0,1.76,7.13,14.64,14.64,0,0,0,4.74,5.38,11.07,11.07,0,0,0,6.29,2,9.78,9.78,0,0,0,4.71-1.22,9.37,9.37,0,0,0,3.7-3.76,12.53,12.53,0,0,0,1.44-6.27,16.54,16.54,0,0,0-1-5.64,15.12,15.12,0,0,0-2.67-4.69,12.41,12.41,0,0,0-3.95-3.12,10.53,10.53,0,0,0-4.72-1.11,10.22,10.22,0,0,0-5.09,1.34,10,10,0,0,0-3.81,3.94A12.12,12.12,0,0,0,440.16,256.88Z" transform="translate(-117.77 -243.06)"/><path class="cls-1" d="M471.65,245.27v-.65l2.78,0c.26,0,1.56,0,3.92.08l2.86.09,1.28,0q6,0,9.8-.3c-.07.8-.12,1.74-.13,2.81s0,1.94,0,2.62h-.88a6.61,6.61,0,0,0-.54-2.5,3.17,3.17,0,0,0-2.07-1.23,22.92,22.92,0,0,0-5.3-.43,24.8,24.8,0,0,0-4.89.3c-.12,1.57-.17,4.2-.17,7.91v3.4c1.72.15,3.35.22,4.89.22a27.88,27.88,0,0,0,4.26-.22c.85-.14,1.37-.38,1.55-.73a4,4,0,0,0,.28-1.79,4.13,4.13,0,0,0,.84-.08c.06.95.09,1.81.09,2.6,0,1.5,0,3-.09,4.51h-.88c0-1.45-.12-2.25-.37-2.39a6.38,6.38,0,0,0-2.33-.64,29.31,29.31,0,0,0-4.37-.29c-1.71,0-3,0-3.83.13-.06,2.7-.09,5.14-.09,7.29a28.71,28.71,0,0,0,.1,2.95,2.71,2.71,0,0,0,.52,1.41,2.27,2.27,0,0,0,1.24.77,23,23,0,0,0,2.77.48v.82c-1.85-.08-3.41-.13-4.67-.13h-2.13c-1.15,0-2.47.06-4,.18l0-.71a4.28,4.28,0,0,0,1.91-.67,2.05,2.05,0,0,0,.66-1.23,87.94,87.94,0,0,0,.47-11.79c0-.82,0-1.62,0-2.42s0-1.87,0-3.22-.08-2.56-.16-3.62a9,9,0,0,0-.35-2.16,1.54,1.54,0,0,0-.95-1A10,10,0,0,0,471.65,245.27Z" transform="translate(-117.77 -243.06)"/><path class="cls-1" d="M141.7,397l.09-.82c.27,0,.54,0,.8,0s.71,0,1.35,0l2.09.15c.64.05,1.3.07,2,.07l.77,0h1.08c.47,1.27.9,2.35,1.28,3.23s1.14,2.41,2.28,4.6,2.23,4.27,3.29,6.25l4,7.44c.64-1.08,1.7-3,3.16-5.86q.4-.78,3-5.64t3.65-6.88c.7-1.33,1.24-2.4,1.59-3.19,1.12,0,2.35.05,3.67.05,1.09,0,2,0,2.6-.05l0,.8a12.47,12.47,0,0,0-2.35.44,2,2,0,0,0-1,.87,4.35,4.35,0,0,0-.47,1.81c-.06.79-.08,2.18-.05,4.16l.13,6,0,1c0,.33,0,.75,0,1.25s0,1.13.08,1.91.06,1.76.11,2.92c.07,1.35.15,2.37.25,3a3.49,3.49,0,0,0,.54,1.58,1.9,1.9,0,0,0,1.06.76,9.06,9.06,0,0,0,2,.23V424l-3.7,0-2.87,0a32.19,32.19,0,0,0-4.09.22l-.05-.82a8.75,8.75,0,0,0,2.59-.94,2.89,2.89,0,0,0,1.12-1.78,15.92,15.92,0,0,0,.35-3.85c0-1.09,0-2,0-2.64l-.17-5.82a65.36,65.36,0,0,0-.58-6.88c-.43.83-1.1,2.08-2,3.75s-1.73,3.21-2.48,4.63-1.48,2.81-2.18,4.16-1.28,2.5-1.73,3.44c-.91,2-1.52,3.37-1.82,4.08s-.58,1.5-.87,2.41l-.66,0c-.36-1.13-.79-2.37-1.3-3.73A40.3,40.3,0,0,0,156,415.6q-2.79-5.3-7.44-14.26-.37,3.66-.72,8.55t-.34,10.34a3.16,3.16,0,0,0,.7,2.35c.47.45,1.56.76,3.29.95l0,.71a26.49,26.49,0,0,0-3.06-.17l-2.6,0H145l-1.09,0-1.4.06-1,0,0-.62a6.61,6.61,0,0,0,2.93-1.07,3.29,3.29,0,0,0,1.12-2,45.14,45.14,0,0,0,.5-4.71l.64-11.25c.07-1,.11-1.73.11-2.09a7.69,7.69,0,0,0-.57-3.34,3.07,3.07,0,0,0-1.64-1.56A10.5,10.5,0,0,0,141.7,397Z" transform="translate(-117.77 -243.06)"/><path class="cls-1" d="M189.1,397.16v-.93l3,.17c1.47.06,2.45.09,3,.09l2.24-.09c1.32,0,2.56-.11,3.72-.17v1a10.4,10.4,0,0,0-2.58.21,1.67,1.67,0,0,0-1,.81q-.7,1.35-.71,10.37c0,4.14,0,6.76,0,7.86s0,2.27.08,3.53a9,9,0,0,0,.24,2.13,1.54,1.54,0,0,0,1,.94,9,9,0,0,0,2.78.33l-.08.82-1.2,0-1.85-.06-1.48,0H193.5l-1.69,0-1.91.06-1,0,0-.82a8.79,8.79,0,0,0,3.14-.54,2.15,2.15,0,0,0,1.12-1.31,16.39,16.39,0,0,0,.55-4.4q.12-3.24.12-6.84c0-2.16-.07-5.28-.21-9.34a8.68,8.68,0,0,0-.34-2.4,1.87,1.87,0,0,0-1.21-1.07A9.2,9.2,0,0,0,189.1,397.16Z" transform="translate(-117.77 -243.06)"/><path class="cls-1" d="M213.59,424.24l-.89,0a24.92,24.92,0,0,0-1.18-7.2,4.55,4.55,0,0,1,.69-.17c.34,1.08.61,1.86.8,2.34a4.87,4.87,0,0,0,.76,1.27,4.32,4.32,0,0,0,1.28,1,20.07,20.07,0,0,0,3.23,1.31,12.92,12.92,0,0,0,3.95.58,8.3,8.3,0,0,0,3.67-.9c1.23-.6,1.84-1.93,1.84-4a6.12,6.12,0,0,0-.54-2.67,5,5,0,0,0-1.41-1.81,10.44,10.44,0,0,0-2-1.23c-.77-.36-1.77-.76-3-1.22a25.9,25.9,0,0,1-4.19-1.9A8.08,8.08,0,0,1,214,407.2a6.08,6.08,0,0,1-1-3.47,7,7,0,0,1,2.4-5.42c1.59-1.44,3.87-2.17,6.83-2.17a20.93,20.93,0,0,1,4.46.48,9,9,0,0,0,1.09.17,2.29,2.29,0,0,0,1.3-.43l.17-.09a1.37,1.37,0,0,1,.43.09l-.12,1c0,.32-.07.68-.11,1.07s-.06.69-.07.9,0,.36,0,.43c.18,1.74.27,2.69.25,2.85l-.64,0a5.27,5.27,0,0,0-1.45-3.46,6.53,6.53,0,0,0-2.86-1.71,11.23,11.23,0,0,0-3.06-.45c-2.39,0-4,.62-4.73,1.86a6.73,6.73,0,0,0-1.15,3.52,4.67,4.67,0,0,0,.86,2.9,6.13,6.13,0,0,0,2.14,1.81c.86.43,2.06.95,3.61,1.55a38.38,38.38,0,0,1,4.22,1.91,8.89,8.89,0,0,1,2.85,2.52,6.59,6.59,0,0,1,1.25,4.09,6.7,6.7,0,0,1-1.08,3.73,7.26,7.26,0,0,1-3.23,2.63,12.8,12.8,0,0,1-5.28,1,24.58,24.58,0,0,1-6.31-.88,4.73,4.73,0,0,0-.71-.13C213.64,423.49,213.5,423.74,213.59,424.24Z" transform="translate(-117.77 -243.06)"/><path class="cls-1" d="M243.12,424.24l-.89,0a24.92,24.92,0,0,0-1.18-7.2,4.55,4.55,0,0,1,.69-.17q.51,1.62.81,2.34a4.58,4.58,0,0,0,.75,1.27,4.45,4.45,0,0,0,1.28,1,20.45,20.45,0,0,0,3.23,1.31,12.92,12.92,0,0,0,3.95.58,8.3,8.3,0,0,0,3.67-.9c1.23-.6,1.84-1.93,1.84-4a6.12,6.12,0,0,0-.54-2.67,5,5,0,0,0-1.41-1.81,10.14,10.14,0,0,0-2-1.23c-.77-.36-1.77-.76-3-1.22a25.9,25.9,0,0,1-4.19-1.9,8.08,8.08,0,0,1-2.62-2.39,6.08,6.08,0,0,1-1-3.47,7,7,0,0,1,2.4-5.42c1.59-1.44,3.87-2.17,6.83-2.17a20.93,20.93,0,0,1,4.46.48,9,9,0,0,0,1.1.17,2.29,2.29,0,0,0,1.29-.43l.17-.09a1.32,1.32,0,0,1,.43.09l-.12,1c0,.32-.07.68-.1,1.07s-.07.69-.08.9a4.18,4.18,0,0,1,0,.43c.18,1.74.27,2.69.26,2.85l-.65,0a5.31,5.31,0,0,0-1.44-3.46,6.62,6.62,0,0,0-2.87-1.71,11.23,11.23,0,0,0-3.06-.45q-3.57,0-4.73,1.86a6.73,6.73,0,0,0-1.15,3.52,4.73,4.73,0,0,0,.86,2.9,6.13,6.13,0,0,0,2.14,1.81c.86.43,2.06.95,3.61,1.55a38.66,38.66,0,0,1,4.23,1.91,9,9,0,0,1,2.84,2.52,6.59,6.59,0,0,1,1.25,4.09,6.7,6.7,0,0,1-1.08,3.73,7.26,7.26,0,0,1-3.23,2.63,12.8,12.8,0,0,1-5.28,1,24.58,24.58,0,0,1-6.31-.88,4.73,4.73,0,0,0-.71-.13C243.17,423.49,243,423.74,243.12,424.24Z" transform="translate(-117.77 -243.06)"/><path class="cls-1" d="M270.79,397.16v-.93l3,.17c1.47.06,2.45.09,2.95.09l2.25-.09c1.32,0,2.56-.11,3.72-.17v1a10.4,10.4,0,0,0-2.58.21,1.67,1.67,0,0,0-1,.81q-.7,1.35-.71,10.37c0,4.14,0,6.76,0,7.86s0,2.27.08,3.53a9,9,0,0,0,.24,2.13,1.52,1.52,0,0,0,1.05.94,9,9,0,0,0,2.78.33l-.09.82-1.19,0-1.85-.06-1.48,0H275.2l-1.69,0-1.91.06-1,0,0-.82a8.79,8.79,0,0,0,3.14-.54,2.15,2.15,0,0,0,1.12-1.31,16.39,16.39,0,0,0,.55-4.4q.12-3.24.12-6.84c0-2.16-.07-5.28-.22-9.34a8.39,8.39,0,0,0-.33-2.4,1.87,1.87,0,0,0-1.21-1.07A9.23,9.23,0,0,0,270.79,397.16Z" transform="translate(-117.77 -243.06)"/><path class="cls-1" d="M295.28,424.24l-.88,0a24.92,24.92,0,0,0-1.18-7.2,4.55,4.55,0,0,1,.69-.17c.34,1.08.61,1.86.8,2.34a4.87,4.87,0,0,0,.76,1.27,4.32,4.32,0,0,0,1.28,1,20.07,20.07,0,0,0,3.23,1.31,12.9,12.9,0,0,0,3.94.58,8.31,8.31,0,0,0,3.68-.9c1.23-.6,1.84-1.93,1.84-4a6.12,6.12,0,0,0-.54-2.67,5,5,0,0,0-1.41-1.81,10.44,10.44,0,0,0-2-1.23c-.77-.36-1.77-.76-3-1.22a25.9,25.9,0,0,1-4.19-1.9,8.08,8.08,0,0,1-2.62-2.39,6.08,6.08,0,0,1-1-3.47,7,7,0,0,1,2.39-5.42c1.6-1.44,3.88-2.17,6.83-2.17a20.79,20.79,0,0,1,4.46.48,9.34,9.34,0,0,0,1.1.17,2.32,2.32,0,0,0,1.3-.43l.17-.09a1.37,1.37,0,0,1,.43.09l-.12,1c0,.32-.07.68-.11,1.07s-.06.69-.07.9,0,.36,0,.43c.18,1.74.27,2.69.25,2.85l-.64,0a5.27,5.27,0,0,0-1.45-3.46,6.53,6.53,0,0,0-2.86-1.71,11.28,11.28,0,0,0-3.06-.45c-2.39,0-4,.62-4.73,1.86a6.73,6.73,0,0,0-1.15,3.52,4.67,4.67,0,0,0,.86,2.9,6.13,6.13,0,0,0,2.14,1.81c.86.43,2.06.95,3.61,1.55a38.38,38.38,0,0,1,4.22,1.91,8.89,8.89,0,0,1,2.85,2.52,6.59,6.59,0,0,1,1.25,4.09,6.7,6.7,0,0,1-1.08,3.73,7.32,7.32,0,0,1-3.23,2.63,12.8,12.8,0,0,1-5.28,1,24.52,24.52,0,0,1-6.31-.88,4.73,4.73,0,0,0-.71-.13C295.34,423.49,295.2,423.74,295.28,424.24Z" transform="translate(-117.77 -243.06)"/><path class="cls-1" d="M324.82,424.24l-.89,0a24.92,24.92,0,0,0-1.18-7.2,4.55,4.55,0,0,1,.69-.17c.34,1.08.61,1.86.8,2.34a4.87,4.87,0,0,0,.76,1.27,4.45,4.45,0,0,0,1.28,1,20.07,20.07,0,0,0,3.23,1.31,12.92,12.92,0,0,0,3.95.58,8.3,8.3,0,0,0,3.67-.9c1.23-.6,1.84-1.93,1.84-4a6.12,6.12,0,0,0-.54-2.67,5,5,0,0,0-1.41-1.81,10.44,10.44,0,0,0-2-1.23c-.77-.36-1.77-.76-3-1.22a25.9,25.9,0,0,1-4.19-1.9,8.08,8.08,0,0,1-2.62-2.39,6.08,6.08,0,0,1-1-3.47,7,7,0,0,1,2.4-5.42c1.59-1.44,3.87-2.17,6.83-2.17a20.93,20.93,0,0,1,4.46.48,9,9,0,0,0,1.09.17,2.29,2.29,0,0,0,1.3-.43l.17-.09a1.37,1.37,0,0,1,.43.09l-.12,1c0,.32-.07.68-.11,1.07s-.06.69-.07.9,0,.36,0,.43c.18,1.74.27,2.69.25,2.85l-.64,0a5.27,5.27,0,0,0-1.45-3.46,6.53,6.53,0,0,0-2.86-1.71,11.23,11.23,0,0,0-3.06-.45c-2.39,0-4,.62-4.73,1.86a6.73,6.73,0,0,0-1.15,3.52,4.67,4.67,0,0,0,.86,2.9,6.13,6.13,0,0,0,2.14,1.81c.86.43,2.06.95,3.61,1.55a39.56,39.56,0,0,1,4.23,1.91,9,9,0,0,1,2.84,2.52,6.59,6.59,0,0,1,1.25,4.09,6.7,6.7,0,0,1-1.08,3.73,7.26,7.26,0,0,1-3.23,2.63,12.8,12.8,0,0,1-5.28,1,24.58,24.58,0,0,1-6.31-.88,4.73,4.73,0,0,0-.71-.13C324.87,423.49,324.73,423.74,324.82,424.24Z" transform="translate(-117.77 -243.06)"/><path class="cls-1" d="M370.23,424.24v-.71a6.77,6.77,0,0,0,1.58-.45,1,1,0,0,0,.59-.95,6.6,6.6,0,0,0-.38-1.81c-.26-.79-.46-1.34-.59-1.64l-1.59-4.33a34.76,34.76,0,0,0-4.08-.17h-1.7a21.75,21.75,0,0,0-4.52.26l-1.58,4a12.32,12.32,0,0,0-1,3.13,1.53,1.53,0,0,0,.68,1.26,6.86,6.86,0,0,0,2.77.81v.71a37.18,37.18,0,0,0-4.29-.3c-1.21,0-2.51.05-3.92.17v-.63a4.12,4.12,0,0,0,2-1,8,8,0,0,0,1.37-2.14c.57-1.13,1.14-2.36,1.73-3.69s1-2.36,1.26-3.11l3.45-8.25c.43-1,.87-2,1.33-3.12s.88-2.17,1.28-3.26.7-2,.88-2.63a.59.59,0,0,1,.13-.41l.72,0q.66,2.38,1.46,4.59l4.52,12.13q1.74,4.55,2.64,6.71a15.89,15.89,0,0,0,1.56,3.09,3,3,0,0,0,2.3,1v.75c-1.18-.11-2.31-.17-3.4-.17-.87,0-1.67,0-2.41.07s-1.32.08-1.75.12Zm-6.82-19.41L361,411.1q-.5,1.33-.66,1.68a24.55,24.55,0,0,0,3.76.26l2-.05c1.19,0,2.26,0,3.21-.08a25.51,25.51,0,0,0-1-2.61l-1.55-4c-.17-.44-.49-1.22-1-2.35s-.83-1.91-1-2.33c-.27.6-.5,1.15-.7,1.65S363.62,404.31,363.41,404.83Z" transform="translate(-117.77 -243.06)"/><path class="cls-1" d="M386.08,397.35l.08-.82c.68,0,1.7.05,3.08.05,2.45,0,4.84-.06,7.2-.18l.24.71a9.65,9.65,0,0,0-2.71.59,2.28,2.28,0,0,0-1,.94q-.65,1.22-.65,10.11c0,2,0,3.83.09,5.39a25,25,0,0,0,.34,3.62,5.58,5.58,0,0,0,3.47,4.32,14.36,14.36,0,0,0,5.15,1.06,16.59,16.59,0,0,0,3.26-.39,11.34,11.34,0,0,0,3.59-1.39,5,5,0,0,0,2.29-2.76q1.18-3.45,1.18-13.54a41.79,41.79,0,0,0-.18-4.53,5.8,5.8,0,0,0-.59-2.2,1.7,1.7,0,0,0-1-.83,9.26,9.26,0,0,0-2-.15l-.08-.75a14,14,0,0,1,2.15-.15c3.09,0,5.16,0,6.23,0v.88a6,6,0,0,0-2,.33,1.17,1.17,0,0,0-.67.92,23.9,23.9,0,0,0-.16,2.85c0,2.71-.11,5.12-.19,7.23s-.2,3.83-.33,5.19a29.17,29.17,0,0,1-.55,3.63,10.19,10.19,0,0,1-.87,2.58,6.74,6.74,0,0,1-3.08,2.85,14.63,14.63,0,0,1-4.22,1.32,26.84,26.84,0,0,1-3.88.32,16,16,0,0,1-5.37-.88,8.58,8.58,0,0,1-4-2.89,8.24,8.24,0,0,1-1.57-5.21c0-.52,0-1.93.06-4.24s.05-4,.05-5.17a33.83,33.83,0,0,0-.58-7.92.85.85,0,0,0-.51-.62A16,16,0,0,0,386.08,397.35Z" transform="translate(-117.77 -243.06)"/><path class="cls-1" d="M455,410.47v.82a7.2,7.2,0,0,0-1.07.42,1.18,1.18,0,0,0-.4.59,2.71,2.71,0,0,0-.14.75c0,.32,0,.79-.05,1.42s0,1.82,0,3.55c0,1.28,0,2.19.08,2.73a3.11,3.11,0,0,0,.27,1.13,2.66,2.66,0,0,0,.62.68l-.22.5c-.23,0-1.23.2-3,.56-1.18.21-2.31.39-3.39.52s-1.94.23-2.58.26-1.41.06-2.29.06a18,18,0,0,1-6.94-1.23,13.54,13.54,0,0,1-7.67-7.9,14.91,14.91,0,0,1-.88-5,13.35,13.35,0,0,1,5-10.61,16.52,16.52,0,0,1,5.3-2.8,20.27,20.27,0,0,1,6.09-.94,16.54,16.54,0,0,1,2.27.15c.73.11,1.36.22,1.91.34a9.71,9.71,0,0,1,1.06.27,4.14,4.14,0,0,0,1.2.41,5.16,5.16,0,0,1,1.32-1c.2,0,.3.27.3.82a23.41,23.41,0,0,0,.29,2.67,24.9,24.9,0,0,1,.29,2.8c0,.21-.09.32-.26.32a.36.36,0,0,1-.25-.06,4,4,0,0,1-.2-.43,8.77,8.77,0,0,0-3-3.48,9.71,9.71,0,0,0-5.95-1.63,11.34,11.34,0,0,0-6.34,1.8,11.91,11.91,0,0,0-4.22,4.74,13.4,13.4,0,0,0-1.47,6.06,13.68,13.68,0,0,0,.83,4.56,15.22,15.22,0,0,0,2.52,4.42,12.53,12.53,0,0,0,4.12,3.31,11.61,11.61,0,0,0,5.33,1.22,11.16,11.16,0,0,0,4.17-.69,5.57,5.57,0,0,0,2.23-1.33,1.8,1.8,0,0,0,.3-1c0-.43.07-1.54.07-3.34a21.35,21.35,0,0,0-.21-3.66,1.74,1.74,0,0,0-1-1.38,7.51,7.51,0,0,0-2.76-.35,8.09,8.09,0,0,0-1.35.09l.08-.93c2,0,3.83,0,5.53-.07S453.78,410.59,455,410.47Z" transform="translate(-117.77 -243.06)"/><path class="cls-1" d="M483,424.24v-.71a6.77,6.77,0,0,0,1.58-.45,1,1,0,0,0,.59-.95,6.6,6.6,0,0,0-.38-1.81c-.26-.79-.46-1.34-.58-1.64l-1.6-4.33a34.76,34.76,0,0,0-4.08-.17h-1.7a21.75,21.75,0,0,0-4.52.26l-1.58,4a12.32,12.32,0,0,0-1.05,3.13,1.53,1.53,0,0,0,.68,1.26,6.86,6.86,0,0,0,2.77.81v.71a37.18,37.18,0,0,0-4.29-.3c-1.2,0-2.51.05-3.92.17v-.63a4.12,4.12,0,0,0,2-1,8,8,0,0,0,1.37-2.14c.57-1.13,1.14-2.36,1.73-3.69s1-2.36,1.26-3.11l3.45-8.25c.43-1,.87-2,1.33-3.12s.88-2.17,1.28-3.26.7-2,.88-2.63a.59.59,0,0,1,.13-.41l.72,0q.66,2.38,1.46,4.59l4.52,12.13q1.74,4.55,2.64,6.71a15.89,15.89,0,0,0,1.56,3.09,3,3,0,0,0,2.3,1v.75c-1.18-.11-2.31-.17-3.4-.17-.87,0-1.67,0-2.41.07s-1.32.08-1.75.12Zm-6.82-19.41-2.43,6.27c-.33.89-.56,1.45-.67,1.68a24.55,24.55,0,0,0,3.76.26l2-.05c1.2,0,2.26,0,3.21-.08a25.51,25.51,0,0,0-1-2.61l-1.55-4c-.17-.44-.49-1.22-1-2.35s-.83-1.91-1.05-2.33c-.27.6-.5,1.15-.7,1.65S476.41,404.31,476.2,404.83Z" transform="translate(-117.77 -243.06)"/><path class="cls-2" d="M120.43,301.44l-1.37-.33q1.91-5,3.41-9.61a8.78,8.78,0,0,0,1.46,1.15,5.16,5.16,0,0,0,1.73.42c1.73.22,5.64.33,11.76.33h20.43l4.93-.08c2.77-.06,4.36-.08,4.76-.08a7.2,7.2,0,0,0,2.26-.23,3.22,3.22,0,0,0,1.21-.95,3.51,3.51,0,0,0,1.05,1,49.92,49.92,0,0,0-2.22,8.29l-1.73.24c.13-.89.24-2.1.32-3.64a8.83,8.83,0,0,0-3.64-1.55,39.09,39.09,0,0,0-8-.59c-2.69,0-4.47,0-5.33.06a3.24,3.24,0,0,0-1.62.33,1.69,1.69,0,0,0-.4,1.15l-.24,5.42q0,1.29-.24,7.11,0,1.46-.08,7.95c0,4.32-.06,8.08-.09,11.26q0,6.06.13,8.51a11,11,0,0,0,.68,3.74,2.94,2.94,0,0,0,1.72,1.7,22.61,22.61,0,0,0,3.94.77c1.21.1,1.82.27,1.82.51a3.12,3.12,0,0,1-.08.94,13.28,13.28,0,0,1-1.58.08q-2.46-.17-4.32-.24c-1.81-.16-3.26-.24-4.37-.24a56.92,56.92,0,0,0-8.6.72c-1.72.3-2.67.45-2.83.45a1.19,1.19,0,0,1-.87-.28,3.26,3.26,0,0,1-.54-1.06c.35-.1,1.18-.32,2.5-.64a26.22,26.22,0,0,0,4.06-1.17,2.73,2.73,0,0,0,1.56-1.3,6.81,6.81,0,0,0,.32-2.42,38.24,38.24,0,0,1,.32-4.56c0,.16,0-1.45.08-4.81s.1-5.76.13-7.17,0-3.11,0-5.07q0-8.65-.06-12.37c-.05-2.47-.13-4.39-.27-5.75a13.06,13.06,0,0,0-.64-3.21q-3.48-.33-7.64-.33a61.13,61.13,0,0,0-6.77.29,11.53,11.53,0,0,0-3.71.92,4.68,4.68,0,0,0-1.86,1.46A21.7,21.7,0,0,0,120.43,301.44Z" transform="translate(-117.77 -243.06)"/><path class="cls-2" d="M174.33,318.81a25.1,25.1,0,0,1,3.9-13.58,28.47,28.47,0,0,1,10.36-9.85,27.44,27.44,0,0,1,13.69-3.64,25.91,25.91,0,0,1,9.74,1.94,28.3,28.3,0,0,1,8.6,5.43,25.51,25.51,0,0,1,6.06,8.55,27.19,27.19,0,0,1-11.33,34.5,28.28,28.28,0,0,1-14.48,3.72,25,25,0,0,1-11.15-2.43,25.57,25.57,0,0,1-8.46-6.54,29.1,29.1,0,0,1-5.22-8.83A27,27,0,0,1,174.33,318.81Zm6-3.07a28.31,28.31,0,0,0,3.31,13.37,27.25,27.25,0,0,0,8.89,10.08A20.65,20.65,0,0,0,204.34,343a18.33,18.33,0,0,0,8.83-2.28,17.69,17.69,0,0,0,6.93-7.05,23.57,23.57,0,0,0,2.71-11.76,31.08,31.08,0,0,0-1.8-10.59,28.19,28.19,0,0,0-5-8.78,23.2,23.2,0,0,0-7.41-5.86,19.71,19.71,0,0,0-8.85-2.08,18.78,18.78,0,0,0-16.69,9.9A22.78,22.78,0,0,0,180.35,315.74Z" transform="translate(-117.77 -243.06)"/><path class="cls-2" d="M258.32,326.85l-4.65-6.63a61.87,61.87,0,0,1-8.85-.52l-.08,9.69q0,3.08.18,6.87a18.22,18.22,0,0,0,.83,5.37,2.3,2.3,0,0,0,1.11,1.38,23.1,23.1,0,0,0,3.54,1.13c.59.13.89.35.89.65,0,.59-.19.88-.57.88a33.7,33.7,0,0,1-3.39-.4c-2.32-.22-3.73-.32-4.24-.32a61,61,0,0,0-8.08.56,4,4,0,0,0-.69.08q-.81,0-.81-.72a.69.69,0,0,1,.3-.61,5.63,5.63,0,0,1,1.36-.48,4.92,4.92,0,0,0,2.62-1.48,8.24,8.24,0,0,0,1.18-3.88,89.16,89.16,0,0,0,.4-9.27V311.29q.07-6.54-.06-9.61a16.43,16.43,0,0,0-.67-4.5,3.13,3.13,0,0,0-1.61-1.92,12.73,12.73,0,0,0-3.44-.77l.16-1.33c1.43,0,3.25.08,5.46.08q1,0,7-.51c4.05-.34,6.62-.5,7.69-.5a23.35,23.35,0,0,1,7.64,1.17,17.63,17.63,0,0,1,5.68,3.11,13.16,13.16,0,0,1,3.45,4.42,11.88,11.88,0,0,1,1.17,5.11,12,12,0,0,1-1.21,5.25,13.85,13.85,0,0,1-3.68,4.63,21.25,21.25,0,0,1-6.34,3.54l1.82,2.74q3.81,5.74,6.32,9.27a81.88,81.88,0,0,0,5.4,6.81,31.65,31.65,0,0,0,5.88,5.31,12.5,12.5,0,0,0,5.87,2.29c.51.08.77.35.77.8a.58.58,0,0,1-.37.55,5,5,0,0,1-1.73.18,17.44,17.44,0,0,1-7.56-1.72,29.18,29.18,0,0,1-6.91-4.62,48.76,48.76,0,0,1-5.81-6.1Q261.79,331.78,258.32,326.85Zm-13.25-9.5a28,28,0,0,0,6.54.65,31.4,31.4,0,0,0,4.1-.28,17.47,17.47,0,0,0,4.45-1.25,9.38,9.38,0,0,0,3.93-3.27,10.3,10.3,0,0,0,1.66-6.17,13.79,13.79,0,0,0-5.86-10.91,12.06,12.06,0,0,0-7.27-2.16,20.13,20.13,0,0,0-4,.47c-1.49.31-2.36.8-2.6,1.47Q245.07,297.88,245.07,317.35Z" transform="translate(-117.77 -243.06)"/><path class="cls-2" d="M282.88,318.81a25.1,25.1,0,0,1,3.9-13.58,28.55,28.55,0,0,1,10.36-9.85,27.48,27.48,0,0,1,13.7-3.64,25.86,25.86,0,0,1,9.73,1.94,28.22,28.22,0,0,1,8.61,5.43,25.8,25.8,0,0,1,6.06,8.55,27.22,27.22,0,0,1-11.33,34.5,28.32,28.32,0,0,1-14.49,3.72,25.07,25.07,0,0,1-11.15-2.43,25.67,25.67,0,0,1-8.46-6.54,28.87,28.87,0,0,1-5.21-8.83A26.83,26.83,0,0,1,282.88,318.81Zm6-3.07a28.31,28.31,0,0,0,3.31,13.37,27.25,27.25,0,0,0,8.89,10.08A20.68,20.68,0,0,0,312.9,343a18.29,18.29,0,0,0,8.82-2.28,17.69,17.69,0,0,0,6.93-7.05,23.46,23.46,0,0,0,2.71-11.76,31.08,31.08,0,0,0-1.8-10.59,28.19,28.19,0,0,0-5-8.78,23.2,23.2,0,0,0-7.41-5.86,19.64,19.64,0,0,0-8.85-2.08,19,19,0,0,0-9.53,2.52,18.76,18.76,0,0,0-7.15,7.38A22.68,22.68,0,0,0,288.9,315.74Z" transform="translate(-117.77 -243.06)"/><path class="cls-2" d="M342.07,294.17v-1.66l4.64.3c.67,0,1.47.05,2.38,0l3.48-.08c1.62,2.05,3.51,4.22,5.7,6.51s4.62,4.74,7.33,7.37l4.58,4.46L394,333.72q.32-5.06.32-15.32v-7.79q0-6.23-.3-9.37a12.24,12.24,0,0,0-1.15-4.65,4.27,4.27,0,0,0-2.22-2,27.78,27.78,0,0,0-4.61-1l.44-1.13a15.17,15.17,0,0,1,2-.08c.84,0,1.67,0,2.51,0s1.82.09,2.95.2c.67.05,1.37.08,2.1.08h1.78l5.13-.08L403,294a8.28,8.28,0,0,0-3.48,1.13,4.35,4.35,0,0,0-1.49,2.55,85.28,85.28,0,0,0-1,13q-.3,9.66-.3,18.38,0,3.43.06,6.58c0,2.11.08,4,.14,5.66s.13,3.22.24,4.65l-1.66-.08q-2.77-6-16.8-19.07l-15.15-14.14q-.76-.57-3.74-3.36l-7.49-7L351.8,327a63.59,63.59,0,0,0,.32,10.67q.53,3,2.31,4a25.7,25.7,0,0,0,6.74,1.95,6.39,6.39,0,0,1-.16,1.54c-.43,0-1.72-.05-3.88-.16s-3.54-.16-4-.16-1.91.05-4.44.16l-1.74.12-2.82.2a1.25,1.25,0,0,1-.83-.22.93.93,0,0,1-.27-.75c0-.4.07-.64.21-.73a2.83,2.83,0,0,1,.89-.2,7.21,7.21,0,0,0,2.56-.64,3.15,3.15,0,0,0,1.27-1.7,15.2,15.2,0,0,0,.71-4c.15-1.82.24-4.15.27-7l.28-19.27a87.38,87.38,0,0,0-.25-9.41,9.44,9.44,0,0,0-1.81-5Q345.66,294.56,342.07,294.17Z" transform="translate(-117.77 -243.06)"/><path class="cls-2" d="M406.91,301.44l-1.38-.33c1.28-3.36,2.41-6.57,3.42-9.61a8.42,8.42,0,0,0,1.45,1.15,5.16,5.16,0,0,0,1.74.42q2.58.33,11.75.33h20.43l4.93-.08c2.77-.06,4.36-.08,4.76-.08a7.2,7.2,0,0,0,2.26-.23,3.25,3.25,0,0,0,1.22-.95,3.29,3.29,0,0,0,1.05,1,49,49,0,0,0-2.23,8.29l-1.73.24c.13-.89.24-2.1.32-3.64a8.77,8.77,0,0,0-3.64-1.55,39,39,0,0,0-8-.59q-4.05,0-5.34.06a3.16,3.16,0,0,0-1.61.33,1.69,1.69,0,0,0-.41,1.15l-.24,5.42q0,1.29-.24,7.11,0,1.46-.08,7.95c0,4.32-.06,8.08-.08,11.26q0,6.06.12,8.51a11.25,11.25,0,0,0,.68,3.74,2.94,2.94,0,0,0,1.72,1.7,22.61,22.61,0,0,0,3.94.77c1.21.1,1.82.27,1.82.51a3.12,3.12,0,0,1-.08.94,13.28,13.28,0,0,1-1.58.08q-2.46-.17-4.32-.24c-1.81-.16-3.26-.24-4.36-.24a57,57,0,0,0-8.61.72c-1.72.3-2.67.45-2.83.45a1.19,1.19,0,0,1-.87-.28,3.47,3.47,0,0,1-.54-1.06c.35-.1,1.18-.32,2.5-.64a26.22,26.22,0,0,0,4.06-1.17,2.73,2.73,0,0,0,1.56-1.3,6.81,6.81,0,0,0,.32-2.42,36.43,36.43,0,0,1,.33-4.56c0,.16,0-1.45.08-4.81s.09-5.76.12-7.17,0-3.11,0-5.07q0-8.65-.06-12.37t-.27-5.75a13.06,13.06,0,0,0-.64-3.21c-2.32-.22-4.86-.33-7.64-.33a60.8,60.8,0,0,0-6.76.29,11.53,11.53,0,0,0-3.72.92,4.68,4.68,0,0,0-1.86,1.46A22,22,0,0,0,406.91,301.44Z" transform="translate(-117.77 -243.06)"/><path class="cls-2" d="M460.8,318.81a25.1,25.1,0,0,1,3.9-13.58,28.55,28.55,0,0,1,10.36-9.85,27.45,27.45,0,0,1,13.7-3.64,25.86,25.86,0,0,1,9.73,1.94,28.34,28.34,0,0,1,8.61,5.43,25.8,25.8,0,0,1,6.06,8.55,27.21,27.21,0,0,1-11.34,34.5,28.25,28.25,0,0,1-14.48,3.72,25,25,0,0,1-11.15-2.43,25.67,25.67,0,0,1-8.46-6.54,28.87,28.87,0,0,1-5.21-8.83A26.83,26.83,0,0,1,460.8,318.81Zm6-3.07a28.31,28.31,0,0,0,3.31,13.37A27.25,27.25,0,0,0,479,339.19a20.68,20.68,0,0,0,11.8,3.78,18.29,18.29,0,0,0,8.82-2.28,17.69,17.69,0,0,0,6.93-7.05,23.46,23.46,0,0,0,2.71-11.76,31.08,31.08,0,0,0-1.8-10.59,28.19,28.19,0,0,0-5-8.78,23.2,23.2,0,0,0-7.41-5.86,19.64,19.64,0,0,0-8.85-2.08,19,19,0,0,0-9.53,2.52,18.76,18.76,0,0,0-7.15,7.38A22.68,22.68,0,0,0,466.82,315.74Z" transform="translate(-117.77 -243.06)"/><line class="cls-3" y1="125.19" x2="407.25" y2="125.19"/></svg>